<?xml version="1.0" encoding="utf-8"?>
<svg xmlns="http://www.w3.org/2000/svg" xmlns:xlink="http://www.w3.org/1999/xlink" width="480" height="400" viewBox="0 0 1920 1600">
<defs>
  <clipPath id="clip250">
    <rect x="0" y="0" width="1920" height="1600"/>
  </clipPath>
</defs>
<path clip-path="url(#clip250)" d="M0 1600 L1920 1600 L1920 0 L0 0  Z" fill="#ffffff" fill-rule="evenodd" fill-opacity="1"/>
<defs>
  <clipPath id="clip251">
    <rect x="384" y="0" width="1345" height="1345"/>
  </clipPath>
</defs>
<path clip-path="url(#clip250)" d="M297.578 1402.66 L1872.76 1402.66 L1872.76 47.2441 L297.578 47.2441  Z" fill="#ffffff" fill-rule="evenodd" fill-opacity="1"/>
<defs>
  <clipPath id="clip252">
    <rect x="297" y="47" width="1576" height="1356"/>
  </clipPath>
</defs>
<polyline clip-path="url(#clip252)" style="stroke:#000000; stroke-linecap:round; stroke-linejoin:round; stroke-width:2; stroke-opacity:0.1; fill:none" points="297.578,1402.66 297.578,47.2441 "/>
<polyline clip-path="url(#clip252)" style="stroke:#000000; stroke-linecap:round; stroke-linejoin:round; stroke-width:2; stroke-opacity:0.1; fill:none" points="691.372,1402.66 691.372,47.2441 "/>
<polyline clip-path="url(#clip252)" style="stroke:#000000; stroke-linecap:round; stroke-linejoin:round; stroke-width:2; stroke-opacity:0.1; fill:none" points="1085.17,1402.66 1085.17,47.2441 "/>
<polyline clip-path="url(#clip252)" style="stroke:#000000; stroke-linecap:round; stroke-linejoin:round; stroke-width:2; stroke-opacity:0.1; fill:none" points="1478.96,1402.66 1478.96,47.2441 "/>
<polyline clip-path="url(#clip252)" style="stroke:#000000; stroke-linecap:round; stroke-linejoin:round; stroke-width:2; stroke-opacity:0.1; fill:none" points="1872.76,1402.66 1872.76,47.2441 "/>
<polyline clip-path="url(#clip250)" style="stroke:#000000; stroke-linecap:round; stroke-linejoin:round; stroke-width:4; stroke-opacity:1; fill:none" points="297.578,1402.66 1872.76,1402.66 "/>
<polyline clip-path="url(#clip250)" style="stroke:#000000; stroke-linecap:round; stroke-linejoin:round; stroke-width:4; stroke-opacity:1; fill:none" points="297.578,1402.66 297.578,1383.76 "/>
<polyline clip-path="url(#clip250)" style="stroke:#000000; stroke-linecap:round; stroke-linejoin:round; stroke-width:4; stroke-opacity:1; fill:none" points="691.372,1402.66 691.372,1383.76 "/>
<polyline clip-path="url(#clip250)" style="stroke:#000000; stroke-linecap:round; stroke-linejoin:round; stroke-width:4; stroke-opacity:1; fill:none" points="1085.17,1402.66 1085.17,1383.76 "/>
<polyline clip-path="url(#clip250)" style="stroke:#000000; stroke-linecap:round; stroke-linejoin:round; stroke-width:4; stroke-opacity:1; fill:none" points="1478.96,1402.66 1478.96,1383.76 "/>
<polyline clip-path="url(#clip250)" style="stroke:#000000; stroke-linecap:round; stroke-linejoin:round; stroke-width:4; stroke-opacity:1; fill:none" points="1872.76,1402.66 1872.76,1383.76 "/>
<path clip-path="url(#clip250)" d="M266.479 1444.39 L296.154 1444.39 L296.154 1448.33 L266.479 1448.33 L266.479 1444.39 Z" fill="#000000" fill-rule="nonzero" fill-opacity="1" /><path clip-path="url(#clip250)" d="M319.094 1430.73 L307.289 1449.18 L319.094 1449.18 L319.094 1430.73 M317.867 1426.66 L323.747 1426.66 L323.747 1449.18 L328.677 1449.18 L328.677 1453.07 L323.747 1453.07 L323.747 1461.22 L319.094 1461.22 L319.094 1453.07 L303.492 1453.07 L303.492 1448.56 L317.867 1426.66 Z" fill="#000000" fill-rule="nonzero" fill-opacity="1" /><path clip-path="url(#clip250)" d="M661.315 1444.39 L690.991 1444.39 L690.991 1448.33 L661.315 1448.33 L661.315 1444.39 Z" fill="#000000" fill-rule="nonzero" fill-opacity="1" /><path clip-path="url(#clip250)" d="M705.111 1457.28 L721.43 1457.28 L721.43 1461.22 L699.486 1461.22 L699.486 1457.28 Q702.148 1454.53 706.731 1449.9 Q711.338 1445.25 712.518 1443.91 Q714.764 1441.38 715.643 1439.65 Q716.546 1437.89 716.546 1436.2 Q716.546 1433.44 714.602 1431.71 Q712.68 1429.97 709.578 1429.97 Q707.379 1429.97 704.926 1430.73 Q702.495 1431.5 699.717 1433.05 L699.717 1428.33 Q702.541 1427.19 704.995 1426.61 Q707.449 1426.03 709.486 1426.03 Q714.856 1426.03 718.051 1428.72 Q721.245 1431.41 721.245 1435.9 Q721.245 1438.03 720.435 1439.95 Q719.648 1441.84 717.541 1444.44 Q716.963 1445.11 713.861 1448.33 Q710.759 1451.52 705.111 1457.28 Z" fill="#000000" fill-rule="nonzero" fill-opacity="1" /><path clip-path="url(#clip250)" d="M1085.17 1429.74 Q1081.56 1429.74 1079.73 1433.3 Q1077.92 1436.84 1077.92 1443.97 Q1077.92 1451.08 1079.73 1454.65 Q1081.56 1458.19 1085.17 1458.19 Q1088.8 1458.19 1090.61 1454.65 Q1092.44 1451.08 1092.44 1443.97 Q1092.44 1436.84 1090.61 1433.3 Q1088.8 1429.74 1085.17 1429.74 M1085.17 1426.03 Q1090.98 1426.03 1094.03 1430.64 Q1097.11 1435.22 1097.11 1443.97 Q1097.11 1452.7 1094.03 1457.31 Q1090.98 1461.89 1085.17 1461.89 Q1079.36 1461.89 1076.28 1457.31 Q1073.22 1452.7 1073.22 1443.97 Q1073.22 1435.22 1076.28 1430.64 Q1079.36 1426.03 1085.17 1426.03 Z" fill="#000000" fill-rule="nonzero" fill-opacity="1" /><path clip-path="url(#clip250)" d="M1473.61 1457.28 L1489.93 1457.28 L1489.93 1461.22 L1467.99 1461.22 L1467.99 1457.28 Q1470.65 1454.53 1475.23 1449.9 Q1479.84 1445.25 1481.02 1443.91 Q1483.27 1441.38 1484.15 1439.65 Q1485.05 1437.89 1485.05 1436.2 Q1485.05 1433.44 1483.1 1431.71 Q1481.18 1429.97 1478.08 1429.97 Q1475.88 1429.97 1473.43 1430.73 Q1471 1431.5 1468.22 1433.05 L1468.22 1428.33 Q1471.04 1427.19 1473.5 1426.61 Q1475.95 1426.03 1477.99 1426.03 Q1483.36 1426.03 1486.55 1428.72 Q1489.75 1431.41 1489.75 1435.9 Q1489.75 1438.03 1488.94 1439.95 Q1488.15 1441.84 1486.04 1444.44 Q1485.47 1445.11 1482.36 1448.33 Q1479.26 1451.52 1473.61 1457.28 Z" fill="#000000" fill-rule="nonzero" fill-opacity="1" /><path clip-path="url(#clip250)" d="M1875.77 1430.73 L1863.96 1449.18 L1875.77 1449.18 L1875.77 1430.73 M1874.54 1426.66 L1880.42 1426.66 L1880.42 1449.18 L1885.35 1449.18 L1885.35 1453.07 L1880.42 1453.07 L1880.42 1461.22 L1875.77 1461.22 L1875.77 1453.07 L1860.16 1453.07 L1860.16 1448.56 L1874.54 1426.66 Z" fill="#000000" fill-rule="nonzero" fill-opacity="1" /><path clip-path="url(#clip250)" d="M1099.34 1501.08 Q1099.34 1502.88 1098.21 1503.91 Q1097.09 1504.91 1095.8 1504.91 Q1094.57 1504.91 1093.93 1504.2 Q1093.29 1503.49 1093.29 1502.59 Q1093.29 1501.37 1094.19 1500.3 Q1095.09 1499.24 1096.44 1499.01 Q1095.12 1498.18 1093.16 1498.18 Q1091.87 1498.18 1090.74 1498.85 Q1089.65 1499.53 1088.97 1500.4 Q1088.33 1501.27 1087.75 1502.53 Q1087.2 1503.75 1086.97 1504.49 Q1086.78 1505.2 1086.62 1505.97 L1084.37 1514.99 Q1083.27 1519.27 1083.27 1520.79 Q1083.27 1522.65 1084.17 1523.91 Q1085.07 1525.13 1086.88 1525.13 Q1087.59 1525.13 1088.39 1524.94 Q1089.2 1524.71 1090.23 1524.14 Q1091.29 1523.52 1092.22 1522.62 Q1093.19 1521.69 1094.12 1520.11 Q1095.06 1518.53 1095.67 1516.5 Q1095.86 1515.79 1096.51 1515.79 Q1097.31 1515.79 1097.31 1516.44 Q1097.31 1516.99 1096.86 1518.14 Q1096.44 1519.27 1095.51 1520.75 Q1094.61 1522.2 1093.42 1523.52 Q1092.22 1524.81 1090.45 1525.71 Q1088.68 1526.62 1086.75 1526.62 Q1083.98 1526.62 1082.14 1525.13 Q1080.31 1523.65 1079.63 1521.59 Q1079.47 1521.88 1079.24 1522.27 Q1079.02 1522.65 1078.34 1523.52 Q1077.7 1524.36 1076.96 1525 Q1076.22 1525.62 1075.06 1526.1 Q1073.93 1526.62 1072.71 1526.62 Q1071.16 1526.62 1069.78 1526.16 Q1068.42 1525.71 1067.46 1524.68 Q1066.49 1523.65 1066.49 1522.24 Q1066.49 1520.66 1067.55 1519.56 Q1068.65 1518.43 1070.13 1518.43 Q1071.06 1518.43 1071.81 1518.98 Q1072.58 1519.53 1072.58 1520.72 Q1072.58 1522.04 1071.68 1523.04 Q1070.77 1524.04 1069.49 1524.3 Q1070.81 1525.13 1072.77 1525.13 Q1074.9 1525.13 1076.57 1523.27 Q1078.25 1521.4 1079.05 1518.27 Q1081.05 1510.77 1081.82 1507.42 Q1082.59 1504.04 1082.59 1502.59 Q1082.59 1501.24 1082.24 1500.3 Q1081.89 1499.37 1081.27 1498.95 Q1080.69 1498.5 1080.15 1498.34 Q1079.63 1498.18 1079.05 1498.18 Q1078.09 1498.18 1076.99 1498.56 Q1075.93 1498.95 1074.64 1499.85 Q1073.38 1500.72 1072.19 1502.53 Q1071 1504.33 1070.19 1506.81 Q1070.03 1507.55 1069.33 1507.55 Q1068.55 1507.52 1068.55 1506.87 Q1068.55 1506.33 1068.97 1505.2 Q1069.42 1504.04 1070.32 1502.59 Q1071.26 1501.14 1072.45 1499.85 Q1073.67 1498.53 1075.44 1497.63 Q1077.25 1496.73 1079.18 1496.73 Q1080.05 1496.73 1080.89 1496.92 Q1081.76 1497.08 1082.79 1497.57 Q1083.85 1498.05 1084.78 1499.11 Q1085.72 1500.17 1086.3 1501.72 Q1086.68 1500.98 1087.2 1500.27 Q1087.75 1499.56 1088.58 1498.69 Q1089.45 1497.79 1090.65 1497.28 Q1091.87 1496.73 1093.22 1496.73 Q1094.54 1496.73 1095.83 1497.08 Q1097.12 1497.4 1098.21 1498.47 Q1099.34 1499.5 1099.34 1501.08 Z" fill="#000000" fill-rule="nonzero" fill-opacity="1" /><polyline clip-path="url(#clip252)" style="stroke:#000000; stroke-linecap:round; stroke-linejoin:round; stroke-width:2; stroke-opacity:0.1; fill:none" points="297.578,1289.71 1872.76,1289.71 "/>
<polyline clip-path="url(#clip252)" style="stroke:#000000; stroke-linecap:round; stroke-linejoin:round; stroke-width:2; stroke-opacity:0.1; fill:none" points="297.578,1007.33 1872.76,1007.33 "/>
<polyline clip-path="url(#clip252)" style="stroke:#000000; stroke-linecap:round; stroke-linejoin:round; stroke-width:2; stroke-opacity:0.1; fill:none" points="297.578,724.952 1872.76,724.952 "/>
<polyline clip-path="url(#clip252)" style="stroke:#000000; stroke-linecap:round; stroke-linejoin:round; stroke-width:2; stroke-opacity:0.1; fill:none" points="297.578,442.574 1872.76,442.574 "/>
<polyline clip-path="url(#clip252)" style="stroke:#000000; stroke-linecap:round; stroke-linejoin:round; stroke-width:2; stroke-opacity:0.1; fill:none" points="297.578,160.195 1872.76,160.195 "/>
<polyline clip-path="url(#clip250)" style="stroke:#000000; stroke-linecap:round; stroke-linejoin:round; stroke-width:4; stroke-opacity:1; fill:none" points="297.578,1402.66 297.578,47.2441 "/>
<polyline clip-path="url(#clip250)" style="stroke:#000000; stroke-linecap:round; stroke-linejoin:round; stroke-width:4; stroke-opacity:1; fill:none" points="297.578,1289.71 316.476,1289.71 "/>
<polyline clip-path="url(#clip250)" style="stroke:#000000; stroke-linecap:round; stroke-linejoin:round; stroke-width:4; stroke-opacity:1; fill:none" points="297.578,1007.33 316.476,1007.33 "/>
<polyline clip-path="url(#clip250)" style="stroke:#000000; stroke-linecap:round; stroke-linejoin:round; stroke-width:4; stroke-opacity:1; fill:none" points="297.578,724.952 316.476,724.952 "/>
<polyline clip-path="url(#clip250)" style="stroke:#000000; stroke-linecap:round; stroke-linejoin:round; stroke-width:4; stroke-opacity:1; fill:none" points="297.578,442.574 316.476,442.574 "/>
<polyline clip-path="url(#clip250)" style="stroke:#000000; stroke-linecap:round; stroke-linejoin:round; stroke-width:4; stroke-opacity:1; fill:none" points="297.578,160.195 316.476,160.195 "/>
<path clip-path="url(#clip250)" d="M131.672 1290.16 L161.348 1290.16 L161.348 1294.1 L131.672 1294.1 L131.672 1290.16 Z" fill="#000000" fill-rule="nonzero" fill-opacity="1" /><path clip-path="url(#clip250)" d="M172.251 1303.05 L179.89 1303.05 L179.89 1276.69 L171.579 1278.35 L171.579 1274.1 L179.843 1272.43 L184.519 1272.43 L184.519 1303.05 L192.158 1303.05 L192.158 1306.99 L172.251 1306.99 L172.251 1303.05 Z" fill="#000000" fill-rule="nonzero" fill-opacity="1" /><path clip-path="url(#clip250)" d="M211.602 1275.51 Q207.991 1275.51 206.163 1279.07 Q204.357 1282.61 204.357 1289.74 Q204.357 1296.85 206.163 1300.41 Q207.991 1303.96 211.602 1303.96 Q215.237 1303.96 217.042 1300.41 Q218.871 1296.85 218.871 1289.74 Q218.871 1282.61 217.042 1279.07 Q215.237 1275.51 211.602 1275.51 M211.602 1271.8 Q217.413 1271.8 220.468 1276.41 Q223.547 1280.99 223.547 1289.74 Q223.547 1298.47 220.468 1303.08 Q217.413 1307.66 211.602 1307.66 Q205.792 1307.66 202.714 1303.08 Q199.658 1298.47 199.658 1289.74 Q199.658 1280.99 202.714 1276.41 Q205.792 1271.8 211.602 1271.8 Z" fill="#000000" fill-rule="nonzero" fill-opacity="1" /><path clip-path="url(#clip250)" d="M231.764 1301.11 L236.649 1301.11 L236.649 1306.99 L231.764 1306.99 L231.764 1301.11 Z" fill="#000000" fill-rule="nonzero" fill-opacity="1" /><path clip-path="url(#clip250)" d="M256.834 1275.51 Q253.223 1275.51 251.394 1279.07 Q249.588 1282.61 249.588 1289.74 Q249.588 1296.85 251.394 1300.41 Q253.223 1303.96 256.834 1303.96 Q260.468 1303.96 262.273 1300.41 Q264.102 1296.85 264.102 1289.74 Q264.102 1282.61 262.273 1279.07 Q260.468 1275.51 256.834 1275.51 M256.834 1271.8 Q262.644 1271.8 265.699 1276.41 Q268.778 1280.99 268.778 1289.74 Q268.778 1298.47 265.699 1303.08 Q262.644 1307.66 256.834 1307.66 Q251.023 1307.66 247.945 1303.08 Q244.889 1298.47 244.889 1289.74 Q244.889 1280.99 247.945 1276.41 Q251.023 1271.8 256.834 1271.8 Z" fill="#000000" fill-rule="nonzero" fill-opacity="1" /><path clip-path="url(#clip250)" d="M162.829 1007.78 L192.505 1007.78 L192.505 1011.72 L162.829 1011.72 L162.829 1007.78 Z" fill="#000000" fill-rule="nonzero" fill-opacity="1" /><path clip-path="url(#clip250)" d="M201.417 990.05 L223.639 990.05 L223.639 992.041 L211.093 1024.61 L206.209 1024.61 L218.014 993.985 L201.417 993.985 L201.417 990.05 Z" fill="#000000" fill-rule="nonzero" fill-opacity="1" /><path clip-path="url(#clip250)" d="M232.76 1018.73 L237.644 1018.73 L237.644 1024.61 L232.76 1024.61 L232.76 1018.73 Z" fill="#000000" fill-rule="nonzero" fill-opacity="1" /><path clip-path="url(#clip250)" d="M247.875 990.05 L266.232 990.05 L266.232 993.985 L252.158 993.985 L252.158 1002.46 Q253.176 1002.11 254.195 1001.95 Q255.213 1001.76 256.232 1001.76 Q262.019 1001.76 265.398 1004.93 Q268.778 1008.11 268.778 1013.52 Q268.778 1019.1 265.306 1022.2 Q261.834 1025.28 255.514 1025.28 Q253.338 1025.28 251.07 1024.91 Q248.824 1024.54 246.417 1023.8 L246.417 1019.1 Q248.5 1020.24 250.723 1020.79 Q252.945 1021.35 255.422 1021.35 Q259.426 1021.35 261.764 1019.24 Q264.102 1017.13 264.102 1013.52 Q264.102 1009.91 261.764 1007.8 Q259.426 1005.7 255.422 1005.7 Q253.547 1005.7 251.672 1006.11 Q249.82 1006.53 247.875 1007.41 L247.875 990.05 Z" fill="#000000" fill-rule="nonzero" fill-opacity="1" /><path clip-path="url(#clip250)" d="M161.834 725.403 L191.51 725.403 L191.51 729.339 L161.834 729.339 L161.834 725.403 Z" fill="#000000" fill-rule="nonzero" fill-opacity="1" /><path clip-path="url(#clip250)" d="M201.649 707.672 L220.005 707.672 L220.005 711.607 L205.931 711.607 L205.931 720.079 Q206.95 719.732 207.968 719.57 Q208.987 719.385 210.005 719.385 Q215.792 719.385 219.172 722.556 Q222.551 725.727 222.551 731.144 Q222.551 736.723 219.079 739.825 Q215.607 742.903 209.288 742.903 Q207.112 742.903 204.843 742.533 Q202.598 742.163 200.19 741.422 L200.19 736.723 Q202.274 737.857 204.496 738.413 Q206.718 738.968 209.195 738.968 Q213.2 738.968 215.538 736.862 Q217.875 734.755 217.875 731.144 Q217.875 727.533 215.538 725.427 Q213.2 723.32 209.195 723.32 Q207.32 723.32 205.445 723.737 Q203.593 724.153 201.649 725.033 L201.649 707.672 Z" fill="#000000" fill-rule="nonzero" fill-opacity="1" /><path clip-path="url(#clip250)" d="M231.764 736.352 L236.649 736.352 L236.649 742.232 L231.764 742.232 L231.764 736.352 Z" fill="#000000" fill-rule="nonzero" fill-opacity="1" /><path clip-path="url(#clip250)" d="M256.834 710.751 Q253.223 710.751 251.394 714.315 Q249.588 717.857 249.588 724.987 Q249.588 732.093 251.394 735.658 Q253.223 739.2 256.834 739.2 Q260.468 739.2 262.273 735.658 Q264.102 732.093 264.102 724.987 Q264.102 717.857 262.273 714.315 Q260.468 710.751 256.834 710.751 M256.834 707.047 Q262.644 707.047 265.699 711.653 Q268.778 716.237 268.778 724.987 Q268.778 733.713 265.699 738.32 Q262.644 742.903 256.834 742.903 Q251.023 742.903 247.945 738.32 Q244.889 733.713 244.889 724.987 Q244.889 716.237 247.945 711.653 Q251.023 707.047 256.834 707.047 Z" fill="#000000" fill-rule="nonzero" fill-opacity="1" /><path clip-path="url(#clip250)" d="M162.829 443.025 L192.505 443.025 L192.505 446.96 L162.829 446.96 L162.829 443.025 Z" fill="#000000" fill-rule="nonzero" fill-opacity="1" /><path clip-path="url(#clip250)" d="M206.626 455.919 L222.945 455.919 L222.945 459.854 L201.001 459.854 L201.001 455.919 Q203.663 453.164 208.246 448.534 Q212.852 443.882 214.033 442.539 Q216.278 440.016 217.158 438.28 Q218.061 436.52 218.061 434.831 Q218.061 432.076 216.116 430.34 Q214.195 428.604 211.093 428.604 Q208.894 428.604 206.44 429.368 Q204.01 430.132 201.232 431.683 L201.232 426.96 Q204.056 425.826 206.51 425.247 Q208.963 424.669 211.001 424.669 Q216.371 424.669 219.565 427.354 Q222.76 430.039 222.76 434.53 Q222.76 436.659 221.95 438.581 Q221.163 440.479 219.056 443.071 Q218.477 443.743 215.375 446.96 Q212.274 450.155 206.626 455.919 Z" fill="#000000" fill-rule="nonzero" fill-opacity="1" /><path clip-path="url(#clip250)" d="M232.76 453.974 L237.644 453.974 L237.644 459.854 L232.76 459.854 L232.76 453.974 Z" fill="#000000" fill-rule="nonzero" fill-opacity="1" /><path clip-path="url(#clip250)" d="M247.875 425.294 L266.232 425.294 L266.232 429.229 L252.158 429.229 L252.158 437.701 Q253.176 437.354 254.195 437.192 Q255.213 437.007 256.232 437.007 Q262.019 437.007 265.398 440.178 Q268.778 443.349 268.778 448.766 Q268.778 454.344 265.306 457.446 Q261.834 460.525 255.514 460.525 Q253.338 460.525 251.07 460.155 Q248.824 459.784 246.417 459.044 L246.417 454.344 Q248.5 455.479 250.723 456.034 Q252.945 456.59 255.422 456.59 Q259.426 456.59 261.764 454.483 Q264.102 452.377 264.102 448.766 Q264.102 445.155 261.764 443.048 Q259.426 440.942 255.422 440.942 Q253.547 440.942 251.672 441.358 Q249.82 441.775 247.875 442.655 L247.875 425.294 Z" fill="#000000" fill-rule="nonzero" fill-opacity="1" /><path clip-path="url(#clip250)" d="M211.602 145.994 Q207.991 145.994 206.163 149.559 Q204.357 153.101 204.357 160.23 Q204.357 167.337 206.163 170.901 Q207.991 174.443 211.602 174.443 Q215.237 174.443 217.042 170.901 Q218.871 167.337 218.871 160.23 Q218.871 153.101 217.042 149.559 Q215.237 145.994 211.602 145.994 M211.602 142.29 Q217.413 142.29 220.468 146.897 Q223.547 151.48 223.547 160.23 Q223.547 168.957 220.468 173.563 Q217.413 178.147 211.602 178.147 Q205.792 178.147 202.714 173.563 Q199.658 168.957 199.658 160.23 Q199.658 151.48 202.714 146.897 Q205.792 142.29 211.602 142.29 Z" fill="#000000" fill-rule="nonzero" fill-opacity="1" /><path clip-path="url(#clip250)" d="M231.764 171.596 L236.649 171.596 L236.649 177.475 L231.764 177.475 L231.764 171.596 Z" fill="#000000" fill-rule="nonzero" fill-opacity="1" /><path clip-path="url(#clip250)" d="M256.834 145.994 Q253.223 145.994 251.394 149.559 Q249.588 153.101 249.588 160.23 Q249.588 167.337 251.394 170.901 Q253.223 174.443 256.834 174.443 Q260.468 174.443 262.273 170.901 Q264.102 167.337 264.102 160.23 Q264.102 153.101 262.273 149.559 Q260.468 145.994 256.834 145.994 M256.834 142.29 Q262.644 142.29 265.699 146.897 Q268.778 151.48 268.778 160.23 Q268.778 168.957 265.699 173.563 Q262.644 178.147 256.834 178.147 Q251.023 178.147 247.945 173.563 Q244.889 168.957 244.889 160.23 Q244.889 151.48 247.945 146.897 Q251.023 142.29 256.834 142.29 Z" fill="#000000" fill-rule="nonzero" fill-opacity="1" /><path clip-path="url(#clip250)" d="M40.0867 1005.88 Q41.2784 1005.94 41.3428 1006.75 Q41.4072 1007.97 41.5682 1008.71 Q41.697 1009.45 42.1801 1010.61 Q42.6632 1011.77 43.8226 1012.9 Q44.982 1014.03 46.8178 1015.19 L84.5952 1038.92 Q85.3038 1039.34 85.5292 1039.69 Q85.7869 1040.02 85.7869 1040.76 Q85.7869 1041.43 85.497 1041.69 Q85.2394 1041.95 84.2732 1042.08 L43.565 1047.3 Q42.8242 1047.39 42.5022 1047.49 Q42.1801 1047.59 41.8581 1047.97 Q41.536 1048.33 41.4394 1049.1 Q41.3428 1049.87 41.3428 1051.26 Q41.3428 1051.9 41.3106 1052.19 Q41.2784 1052.45 41.1173 1052.67 Q40.9241 1052.9 40.5376 1052.9 Q39.9579 1052.9 39.6681 1052.67 Q39.346 1052.42 39.3138 1052.22 Q39.2816 1052 39.2816 1051.64 Q39.2816 1051.1 39.346 1049.9 Q39.4104 1048.71 39.4104 1048.1 Q39.4104 1047.52 39.4426 1046.3 Q39.4748 1045.07 39.4748 1044.46 Q39.4748 1043.11 39.3782 1040.37 Q39.2816 1037.6 39.2816 1036.28 Q39.2816 1035.38 40.0223 1035.38 Q40.9241 1035.38 41.1495 1035.77 Q41.3428 1036.15 41.3428 1037.02 Q41.3428 1039.21 41.8903 1040.4 Q42.4378 1041.56 43.3073 1041.56 L78.2185 1037.09 L46.0126 1016.83 Q44.4989 1015.83 43.5006 1015.83 Q41.5682 1015.83 41.3428 1018.89 Q41.3428 1019.92 40.5376 1019.92 Q39.9579 1019.92 39.6681 1019.66 Q39.346 1019.41 39.3138 1019.21 Q39.2816 1018.99 39.2816 1018.66 Q39.2816 1017.6 39.3782 1015.44 Q39.4748 1013.25 39.4748 1012.16 Q39.4748 1011.26 39.3782 1009.42 Q39.2816 1007.59 39.2816 1006.75 Q39.2816 1005.88 40.0867 1005.88 Z" fill="#000000" fill-rule="nonzero" fill-opacity="1" /><path clip-path="url(#clip250)" d="M67.8482 997.158 Q56.705 997.158 47.7195 993.003 Q43.9514 991.232 40.7953 988.752 Q37.6391 986.272 36.2542 984.63 Q34.8694 982.987 34.8694 982.537 Q34.8694 981.892 35.5135 981.86 Q35.8356 981.86 36.6407 982.73 Q47.4619 993.358 67.8482 993.326 Q88.2989 993.326 98.7014 982.987 Q99.8286 981.86 100.183 981.86 Q100.827 981.86 100.827 982.537 Q100.827 982.987 99.5066 984.566 Q98.1861 986.144 95.1588 988.591 Q92.1314 991.039 88.4277 992.81 Q79.4423 997.158 67.8482 997.158 Z" fill="#000000" fill-rule="nonzero" fill-opacity="1" /><path clip-path="url(#clip250)" d="M59.5391 943.998 Q61.3426 943.998 62.3732 945.125 Q63.3716 946.252 63.3716 947.54 Q63.3716 948.764 62.663 949.408 Q61.9545 950.053 61.0528 950.053 Q59.8289 950.053 58.7661 949.151 Q57.7033 948.249 57.4779 946.896 Q56.6406 948.217 56.6406 950.181 Q56.6406 951.47 57.3169 952.597 Q57.9932 953.692 58.8628 954.368 Q59.7323 955.012 60.9883 955.592 Q62.2122 956.139 62.9529 956.365 Q63.6614 956.558 64.4344 956.719 L73.452 958.974 Q77.7354 960.069 79.2491 960.069 Q81.117 960.069 82.373 959.167 Q83.5969 958.265 83.5969 956.462 Q83.5969 955.753 83.4036 954.948 Q83.1782 954.143 82.5985 953.112 Q81.9866 952.049 81.0848 951.115 Q80.1508 950.149 78.5727 949.215 Q76.9947 948.281 74.9657 947.669 Q74.2572 947.476 74.2572 946.832 Q74.2572 946.027 74.9013 946.027 Q75.4488 946.027 76.6082 946.478 Q77.7354 946.896 79.2169 947.83 Q80.6661 948.732 81.9866 949.924 Q83.2748 951.115 84.1766 952.887 Q85.0783 954.658 85.0783 956.59 Q85.0783 959.36 83.5969 961.196 Q82.1154 963.032 80.0542 963.708 Q80.3441 963.869 80.7305 964.094 Q81.117 964.32 81.9866 964.996 Q82.8239 965.64 83.468 966.381 Q84.0799 967.122 84.563 968.281 Q85.0783 969.408 85.0783 970.632 Q85.0783 972.178 84.6274 973.563 Q84.1766 974.915 83.146 975.882 Q82.1154 976.848 80.6983 976.848 Q79.1202 976.848 78.0252 975.785 Q76.898 974.69 76.898 973.209 Q76.898 972.275 77.4455 971.534 Q77.993 970.761 79.1847 970.761 Q80.5051 970.761 81.5035 971.663 Q82.5019 972.564 82.7595 973.853 Q83.5969 972.532 83.5969 970.568 Q83.5969 968.442 81.7289 966.767 Q79.861 965.093 76.737 964.288 Q69.233 962.291 65.8836 961.518 Q62.502 960.745 61.0528 960.745 Q59.7001 960.745 58.7661 961.099 Q57.8322 961.453 57.4135 962.065 Q56.9626 962.645 56.8016 963.193 Q56.6406 963.708 56.6406 964.288 Q56.6406 965.254 57.027 966.349 Q57.4135 967.412 58.3153 968.7 Q59.1848 969.956 60.9883 971.147 Q62.7919 972.339 65.2717 973.144 Q66.0125 973.305 66.0125 974.014 Q65.9802 974.787 65.3361 974.787 Q64.7886 974.787 63.6614 974.368 Q62.502 973.917 61.0528 973.015 Q59.6035 972.081 58.3153 970.89 Q56.9948 969.666 56.0931 967.895 Q55.1913 966.091 55.1913 964.159 Q55.1913 963.289 55.3845 962.452 Q55.5456 961.582 56.0286 960.552 Q56.5117 959.489 57.5745 958.555 Q58.6373 957.621 60.1832 957.041 Q59.4425 956.655 58.7339 956.139 Q58.0254 955.592 57.1558 954.755 Q56.2541 953.885 55.7388 952.693 Q55.1913 951.47 55.1913 950.117 Q55.1913 948.797 55.5456 947.508 Q55.8676 946.22 56.9304 945.125 Q57.961 943.998 59.5391 943.998 Z" fill="#000000" fill-rule="nonzero" fill-opacity="1" /><path clip-path="url(#clip250)" d="M100.183 937.648 Q99.8608 937.648 99.0557 936.811 Q88.2345 926.183 67.8482 926.183 Q47.3975 926.183 37.0594 936.392 Q35.8678 937.648 35.5135 937.648 Q34.8694 937.648 34.8694 937.004 Q34.8694 936.553 36.1898 934.975 Q37.5103 933.365 40.5376 930.95 Q43.565 928.502 47.2686 926.698 Q56.2541 922.351 67.8482 922.351 Q78.9914 922.351 87.9769 926.505 Q91.7449 928.277 94.9011 930.756 Q98.0573 933.236 99.4421 934.879 Q100.827 936.521 100.827 937.004 Q100.827 937.648 100.183 937.648 Z" fill="#000000" fill-rule="nonzero" fill-opacity="1" /><path clip-path="url(#clip250)" d="M83.2748 911.388 Q82.212 912.322 80.8272 912.322 Q79.4423 912.322 78.4117 911.421 Q77.3489 910.487 77.3489 908.812 Q77.3489 906.847 79.2491 905.72 Q81.117 904.593 84.2732 904.593 Q87.687 904.593 90.8432 905.978 Q94.0316 907.363 95.5452 908.715 Q97.0589 910.068 97.0589 910.615 Q97.0589 911.259 96.3504 911.259 Q96.0927 911.259 95.6096 910.809 Q90.5211 906.074 84.2732 906.042 Q83.2748 906.042 83.2748 906.171 L83.4036 906.332 Q84.3376 907.459 84.3376 908.812 Q84.3376 910.454 83.2748 911.388 Z" fill="#000000" fill-rule="nonzero" fill-opacity="1" /><path clip-path="url(#clip250)" d="M41.2784 818.526 L52.6792 819.847 Q53.7098 819.943 54.0319 820.104 Q54.3217 820.265 54.3217 820.781 Q54.3217 821.167 54.0963 821.392 Q53.8386 821.586 53.5488 821.586 Q53.3878 821.586 52.9691 821.554 Q52.5504 821.521 52.3572 821.521 Q50.3604 821.231 48.8467 821.231 Q46.0448 821.231 44.5311 822.069 Q42.9853 822.906 42.2767 825.064 Q41.536 827.222 41.536 831.28 L41.536 840.555 Q41.536 842.681 41.9225 843.196 Q42.3089 843.679 44.1125 844.13 L59.99 848.091 L59.99 841.875 Q59.99 839.557 59.7001 838.172 Q59.4103 836.755 58.6051 835.821 Q57.7678 834.855 56.6406 834.339 Q55.5133 833.792 53.4844 833.244 Q52.8081 833.083 52.5504 832.922 Q52.2928 832.729 52.2928 832.31 Q52.2928 831.988 52.5182 831.763 Q52.7114 831.537 53.0013 831.537 L68.4279 835.305 Q69.2008 835.499 69.4907 835.692 Q69.7483 835.885 69.7483 836.272 Q69.7483 836.69 69.5229 836.916 Q69.2975 837.141 69.0398 837.141 Q68.7822 837.141 68.2991 836.948 Q66.2057 836.465 65.0785 836.465 Q64.4344 836.465 64.1123 836.529 Q63.7903 836.561 63.3394 836.851 Q62.8563 837.109 62.6308 837.689 Q62.4054 838.268 62.2444 839.363 Q62.0511 840.458 62.0511 842.101 L62.0511 848.606 L80.0542 853.115 Q81.2458 853.437 81.5679 853.437 Q81.9222 853.437 82.051 853.276 Q82.1476 853.083 82.212 852.568 Q82.3086 851.988 82.3086 851.119 L82.3086 841.489 Q82.3086 839.363 82.1154 837.656 Q81.9222 835.95 81.4391 834.532 Q80.956 833.083 80.4085 831.988 Q79.861 830.893 78.8626 829.863 Q77.832 828.832 76.9302 828.124 Q75.9963 827.383 74.4182 826.513 Q72.8401 825.644 71.5519 825.032 Q70.2314 824.42 68.1058 823.486 Q67.3329 823.228 67.3329 822.616 Q67.3329 822.262 67.5261 822.069 Q67.6872 821.876 67.8482 821.843 L68.0414 821.843 Q68.6533 822.037 68.9754 822.165 L83.2104 828.22 Q84.0155 828.574 84.1766 828.864 Q84.3376 829.154 84.3376 830.281 L84.3376 864.516 Q84.3376 865.289 84.3054 865.611 Q84.2732 865.901 84.1121 866.126 Q83.9189 866.352 83.5324 866.352 Q82.9205 866.352 82.6629 866.094 Q82.373 865.837 82.3408 865.547 Q82.3086 865.257 82.3086 864.516 Q82.3086 862.906 82.212 861.94 Q82.1154 860.974 81.9866 860.362 Q81.8255 859.717 81.3747 859.395 Q80.9238 859.041 80.5373 858.88 Q80.1186 858.719 79.1847 858.494 L44.3057 849.798 Q43.1141 849.476 42.7276 849.476 Q42.3089 849.476 42.0513 849.766 Q41.7936 850.024 41.697 850.732 Q41.5682 851.441 41.5682 852.02 Q41.536 852.568 41.536 853.759 Q41.536 854.532 41.5038 854.854 Q41.4716 855.144 41.3106 855.37 Q41.1495 855.595 40.7953 855.595 Q39.8935 855.595 39.7003 855.209 Q39.4748 854.79 39.4748 853.631 L39.4748 820.33 Q39.4748 819.009 39.7647 818.719 Q40.0223 818.397 41.2784 818.526 Z" fill="#000000" fill-rule="nonzero" fill-opacity="1" /><path clip-path="url(#clip250)" d="M89.8544 786.8 Q90.0348 786.8 90.7336 787.003 Q91.4325 787.206 92.5146 787.702 Q93.5967 788.176 94.5887 788.829 Q95.5581 789.483 96.2795 790.565 Q96.9784 791.625 96.9784 792.842 Q96.9784 794.465 95.8962 795.548 Q94.8141 796.63 93.1909 796.63 Q92.2892 796.63 91.0493 796.156 Q83.0461 793.158 80.2957 793.158 Q77.0719 793.158 77.0719 795.66 Q77.0719 796.9 77.5453 798.072 Q77.9962 799.222 78.6275 800.011 Q79.2587 800.8 80.1379 801.522 Q80.9946 802.221 81.5807 802.581 Q82.1443 802.919 82.7079 803.19 L85.0074 803.776 Q85.6387 803.911 88.096 804.565 L92.2666 805.58 Q95.3777 806.301 95.6708 806.459 Q96.302 806.684 96.6402 807.18 Q96.9784 807.676 96.9784 808.172 Q96.9784 808.736 96.6402 809.119 Q96.302 809.502 95.7159 809.502 Q95.6257 809.502 95.2875 809.435 Q94.9494 809.367 94.476 809.254 Q94.0025 809.142 93.732 809.097 L83.0686 806.414 Q81.1299 805.918 80.5212 805.805 Q79.8899 805.67 79.1911 805.67 Q77.0719 805.67 77.0719 807.113 Q77.0719 808.285 78.4696 809.051 Q79.8674 809.818 82.5727 810.472 Q83.3166 810.675 83.4744 810.81 Q83.6322 810.923 83.6322 811.261 Q83.6097 811.824 83.1588 811.824 Q83.0461 811.824 82.3021 811.644 Q81.5582 811.464 80.4986 811.126 Q79.4165 810.765 78.6951 810.427 Q78.154 810.134 77.906 809.976 Q77.6355 809.795 77.117 809.367 Q76.5759 808.916 76.328 808.33 Q76.0574 807.721 76.0574 806.977 Q76.0574 805.309 77.1395 804.092 Q78.1991 802.874 80.0703 802.717 Q76.0574 799.718 76.0574 795.525 Q76.0574 793.045 77.365 791.625 Q78.6725 790.205 80.9946 790.205 Q81.5356 790.205 82.2345 790.317 Q82.9108 790.407 83.7675 790.633 Q84.6242 790.836 85.278 791.016 Q85.9317 791.197 86.9913 791.557 Q88.0283 791.918 88.4792 792.076 Q88.9301 792.234 89.9897 792.617 Q91.0267 792.978 91.1394 793.023 Q93.236 793.857 94.4309 793.857 Q95.2199 793.857 95.5806 793.609 Q95.9413 793.338 95.9413 792.752 Q95.9413 791.174 94.3858 790.002 Q92.8077 788.807 90.2377 788.04 Q89.6741 787.86 89.5388 787.77 Q89.4035 787.657 89.4035 787.341 Q89.4035 786.8 89.8544 786.8 Z" fill="#000000" fill-rule="nonzero" fill-opacity="1" /><path clip-path="url(#clip250)" d="M83.2748 779.07 Q82.212 780.004 80.8272 780.004 Q79.4423 780.004 78.4117 779.103 Q77.3489 778.169 77.3489 776.494 Q77.3489 774.529 79.2491 773.402 Q81.117 772.275 84.2732 772.275 Q87.687 772.275 90.8432 773.66 Q94.0316 775.045 95.5452 776.397 Q97.0589 777.75 97.0589 778.297 Q97.0589 778.942 96.3504 778.942 Q96.0927 778.942 95.6096 778.491 Q90.5211 773.756 84.2732 773.724 Q83.2748 773.724 83.2748 773.853 L83.4036 774.014 Q84.3376 775.141 84.3376 776.494 Q84.3376 778.136 83.2748 779.07 Z" fill="#000000" fill-rule="nonzero" fill-opacity="1" /><path clip-path="url(#clip250)" d="M59.7967 694.067 Q61.7291 694.067 65.1107 694.807 Q68.4923 695.516 70.1026 696.095 Q74.386 697.706 77.993 700.926 Q79.9898 702.698 81.4391 704.63 Q82.8561 706.53 83.5647 707.947 Q84.241 709.364 84.5952 711.039 Q84.9817 712.714 85.0139 713.487 Q85.0783 714.26 85.0783 715.355 L94.9011 717.867 Q97.4454 718.382 97.6064 718.64 Q97.7352 718.704 97.7996 718.865 Q97.8641 718.994 97.8641 719.123 L97.8641 719.252 Q97.8641 719.606 97.703 719.799 Q97.542 719.992 97.3488 720.024 L97.1877 720.024 Q96.7368 720.024 90.9398 718.511 Q87.9769 717.738 84.9173 717.062 Q84.5952 722.214 82.3086 725.403 Q80.022 728.559 75.5776 728.559 Q72.8401 728.559 64.4344 725.371 Q60.4086 723.857 58.7339 723.857 Q57.9932 723.857 57.5423 724.018 Q57.0592 724.179 56.8982 724.501 Q56.705 724.823 56.6728 725.016 Q56.6406 725.177 56.6406 725.499 Q56.6406 727.4 58.5407 729.171 Q60.4408 730.942 64.8208 732.166 Q65.626 732.424 65.8192 732.585 Q66.0125 732.746 66.0125 733.229 Q65.9802 734.034 65.3361 734.034 Q65.0785 734.034 64.0801 733.744 Q63.0495 733.454 61.5358 732.778 Q59.99 732.069 58.6051 731.103 Q57.188 730.137 56.1897 728.623 Q55.1913 727.078 55.1913 725.306 Q55.1913 722.891 56.7694 721.409 Q58.3153 719.896 60.6019 719.896 Q61.0528 719.896 61.568 719.992 Q62.0833 720.089 62.3732 720.185 Q62.663 720.25 63.2105 720.443 Q63.7258 720.604 63.8225 720.636 Q68.0736 722.279 70.8433 723.116 Q73.5808 723.954 74.386 724.082 Q75.1589 724.179 76.0929 724.179 Q82.5985 724.179 83.468 716.675 L39.8935 705.725 Q38.9917 705.532 38.7985 705.371 Q38.5731 705.21 38.5731 704.727 Q38.5731 703.954 39.2816 703.954 Q39.507 703.954 40.28 704.147 L83.5969 715.033 Q83.5969 714.002 83.5647 713.358 Q83.5324 712.714 83.2426 711.361 Q82.9205 709.976 82.3408 708.817 Q81.7611 707.625 80.6017 705.95 Q79.4101 704.276 77.7354 702.633 Q75.642 700.572 72.1316 698.736 Q68.6211 696.901 65.7226 696.901 Q62.4698 696.901 60.1188 699.252 Q59.7967 699.606 59.6035 699.799 Q59.4103 699.96 59.0882 700.121 Q58.7661 700.25 58.3475 700.25 Q57.2525 700.25 56.2219 699.219 Q55.1913 698.189 55.1913 696.965 Q55.1913 695.87 56.2541 694.968 Q57.3169 694.067 59.7967 694.067 Z" fill="#000000" fill-rule="nonzero" fill-opacity="1" /><path clip-path="url(#clip250)" d="M103.254 662.395 Q103.435 662.395 104.134 662.598 Q104.833 662.801 105.915 663.297 Q106.997 663.77 107.989 664.424 Q108.958 665.078 109.679 666.16 Q110.378 667.219 110.378 668.437 Q110.378 670.06 109.296 671.142 Q108.214 672.224 106.591 672.224 Q105.689 672.224 104.449 671.751 Q96.4461 668.752 93.6957 668.752 Q90.4719 668.752 90.4719 671.255 Q90.4719 672.495 90.9453 673.667 Q91.3962 674.817 92.0275 675.606 Q92.6587 676.395 93.5379 677.116 Q94.3946 677.815 94.9807 678.176 Q95.5443 678.514 96.1079 678.785 L98.4074 679.371 Q99.0387 679.506 101.496 680.16 L105.667 681.174 Q108.778 681.896 109.071 682.053 Q109.702 682.279 110.04 682.775 Q110.378 683.271 110.378 683.767 Q110.378 684.33 110.04 684.714 Q109.702 685.097 109.116 685.097 Q109.026 685.097 108.688 685.029 Q108.349 684.962 107.876 684.849 Q107.403 684.736 107.132 684.691 L96.4686 682.008 Q94.5299 681.512 93.9212 681.4 Q93.2899 681.264 92.5911 681.264 Q90.4719 681.264 90.4719 682.707 Q90.4719 683.88 91.8696 684.646 Q93.2674 685.413 95.9727 686.066 Q96.7166 686.269 96.8744 686.405 Q97.0322 686.517 97.0322 686.855 Q97.0097 687.419 96.5588 687.419 Q96.4461 687.419 95.7021 687.239 Q94.9582 687.058 93.8986 686.72 Q92.8165 686.359 92.0951 686.021 Q91.554 685.728 91.306 685.57 Q91.0355 685.39 90.517 684.962 Q89.9759 684.511 89.728 683.925 Q89.4574 683.316 89.4574 682.572 Q89.4574 680.904 90.5395 679.686 Q91.5991 678.469 93.4703 678.311 Q89.4574 675.313 89.4574 671.12 Q89.4574 668.64 90.765 667.219 Q92.0725 665.799 94.3946 665.799 Q94.9356 665.799 95.6345 665.912 Q96.3108 666.002 97.1675 666.228 Q98.0242 666.43 98.678 666.611 Q99.3317 666.791 100.391 667.152 Q101.428 667.513 101.879 667.67 Q102.33 667.828 103.39 668.211 Q104.427 668.572 104.539 668.617 Q106.636 669.451 107.831 669.451 Q108.62 669.451 108.981 669.203 Q109.341 668.933 109.341 668.347 Q109.341 666.769 107.786 665.596 Q106.208 664.401 103.638 663.635 Q103.074 663.455 102.939 663.364 Q102.804 663.252 102.804 662.936 Q102.804 662.395 103.254 662.395 Z" fill="#000000" fill-rule="nonzero" fill-opacity="1" /><path clip-path="url(#clip250)" d="M67.8482 655.599 Q56.705 655.599 47.7195 651.444 Q43.9514 649.673 40.7953 647.193 Q37.6391 644.713 36.2542 643.071 Q34.8694 641.428 34.8694 640.978 Q34.8694 640.333 35.5135 640.301 Q35.8356 640.301 36.6407 641.171 Q47.4619 651.799 67.8482 651.766 Q88.2989 651.766 98.7014 641.428 Q99.8286 640.301 100.183 640.301 Q100.827 640.301 100.827 640.978 Q100.827 641.428 99.5066 643.006 Q98.1861 644.585 95.1588 647.032 Q92.1314 649.48 88.4277 651.251 Q79.4423 655.599 67.8482 655.599 Z" fill="#000000" fill-rule="nonzero" fill-opacity="1" /><path clip-path="url(#clip250)" d="M59.5391 602.439 Q61.3426 602.439 62.3732 603.566 Q63.3716 604.693 63.3716 605.981 Q63.3716 607.205 62.663 607.849 Q61.9545 608.494 61.0528 608.494 Q59.8289 608.494 58.7661 607.592 Q57.7033 606.69 57.4779 605.337 Q56.6406 606.658 56.6406 608.622 Q56.6406 609.911 57.3169 611.038 Q57.9932 612.133 58.8628 612.809 Q59.7323 613.453 60.9883 614.033 Q62.2122 614.58 62.9529 614.806 Q63.6614 614.999 64.4344 615.16 L73.452 617.415 Q77.7354 618.51 79.2491 618.51 Q81.117 618.51 82.373 617.608 Q83.5969 616.706 83.5969 614.902 Q83.5969 614.194 83.4036 613.389 Q83.1782 612.584 82.5985 611.553 Q81.9866 610.49 81.0848 609.556 Q80.1508 608.59 78.5727 607.656 Q76.9947 606.722 74.9657 606.11 Q74.2572 605.917 74.2572 605.273 Q74.2572 604.468 74.9013 604.468 Q75.4488 604.468 76.6082 604.919 Q77.7354 605.337 79.2169 606.271 Q80.6661 607.173 81.9866 608.365 Q83.2748 609.556 84.1766 611.328 Q85.0783 613.099 85.0783 615.031 Q85.0783 617.801 83.5969 619.637 Q82.1154 621.472 80.0542 622.149 Q80.3441 622.31 80.7305 622.535 Q81.117 622.761 81.9866 623.437 Q82.8239 624.081 83.468 624.822 Q84.0799 625.563 84.563 626.722 Q85.0783 627.849 85.0783 629.073 Q85.0783 630.619 84.6274 632.004 Q84.1766 633.356 83.146 634.323 Q82.1154 635.289 80.6983 635.289 Q79.1202 635.289 78.0252 634.226 Q76.898 633.131 76.898 631.65 Q76.898 630.716 77.4455 629.975 Q77.993 629.202 79.1847 629.202 Q80.5051 629.202 81.5035 630.104 Q82.5019 631.005 82.7595 632.294 Q83.5969 630.973 83.5969 629.009 Q83.5969 626.883 81.7289 625.208 Q79.861 623.534 76.737 622.729 Q69.233 620.732 65.8836 619.959 Q62.502 619.186 61.0528 619.186 Q59.7001 619.186 58.7661 619.54 Q57.8322 619.894 57.4135 620.506 Q56.9626 621.086 56.8016 621.634 Q56.6406 622.149 56.6406 622.729 Q56.6406 623.695 57.027 624.79 Q57.4135 625.852 58.3153 627.141 Q59.1848 628.397 60.9883 629.588 Q62.7919 630.78 65.2717 631.585 Q66.0125 631.746 66.0125 632.455 Q65.9802 633.228 65.3361 633.228 Q64.7886 633.228 63.6614 632.809 Q62.502 632.358 61.0528 631.456 Q59.6035 630.522 58.3153 629.331 Q56.9948 628.107 56.0931 626.336 Q55.1913 624.532 55.1913 622.6 Q55.1913 621.73 55.3845 620.893 Q55.5456 620.023 56.0286 618.993 Q56.5117 617.93 57.5745 616.996 Q58.6373 616.062 60.1832 615.482 Q59.4425 615.096 58.7339 614.58 Q58.0254 614.033 57.1558 613.196 Q56.2541 612.326 55.7388 611.134 Q55.1913 609.911 55.1913 608.558 Q55.1913 607.237 55.5456 605.949 Q55.8676 604.661 56.9304 603.566 Q57.961 602.439 59.5391 602.439 Z" fill="#000000" fill-rule="nonzero" fill-opacity="1" /><path clip-path="url(#clip250)" d="M100.183 596.089 Q99.8608 596.089 99.0557 595.252 Q88.2345 584.624 67.8482 584.624 Q47.3975 584.624 37.0594 594.833 Q35.8678 596.089 35.5135 596.089 Q34.8694 596.089 34.8694 595.445 Q34.8694 594.994 36.1898 593.416 Q37.5103 591.806 40.5376 589.391 Q43.565 586.943 47.2686 585.139 Q56.2541 580.792 67.8482 580.792 Q78.9914 580.792 87.9769 584.946 Q91.7449 586.718 94.9011 589.197 Q98.0573 591.677 99.4421 593.32 Q100.827 594.962 100.827 595.445 Q100.827 596.089 100.183 596.089 Z" fill="#000000" fill-rule="nonzero" fill-opacity="1" /><path clip-path="url(#clip250)" d="M68.6533 550.95 Q68.6533 552.464 67.8482 552.464 Q67.043 552.464 67.043 550.886 Q67.043 550.692 67.0752 550.37 Q67.1075 550.016 67.1075 549.952 L67.1075 531.369 L48.4603 531.369 Q48.3958 531.369 48.106 531.401 Q47.7839 531.433 47.5907 531.433 Q46.0126 531.433 46.0126 530.66 Q46.0126 529.855 47.5907 529.855 L67.1075 529.855 L67.1075 511.24 Q67.1075 511.176 67.0752 510.854 Q67.043 510.532 67.043 510.338 Q67.043 508.825 67.8482 508.825 Q68.6533 508.793 68.6533 510.403 Q68.6533 510.596 68.6211 510.886 Q68.5889 511.176 68.5889 511.24 L68.5889 529.855 L88.1701 529.855 Q89.6838 529.855 89.6838 530.66 Q89.6838 531.433 88.1057 531.433 Q87.9124 531.433 87.5904 531.401 Q87.3005 531.369 87.2361 531.369 L68.5889 531.369 L68.5889 549.952 Q68.5889 550.016 68.6211 550.403 Q68.6533 550.757 68.6533 550.95 Z" fill="#000000" fill-rule="nonzero" fill-opacity="1" /><path clip-path="url(#clip250)" d="M41.2784 435.527 L52.6792 436.847 Q53.7098 436.944 54.0319 437.105 Q54.3217 437.266 54.3217 437.781 Q54.3217 438.168 54.0963 438.393 Q53.8386 438.586 53.5488 438.586 Q53.3878 438.586 52.9691 438.554 Q52.5504 438.522 52.3572 438.522 Q50.3604 438.232 48.8467 438.232 Q46.0448 438.232 44.5311 439.069 Q42.9853 439.907 42.2767 442.064 Q41.536 444.222 41.536 448.28 L41.536 457.555 Q41.536 459.681 41.9225 460.196 Q42.3089 460.679 44.1125 461.13 L59.99 465.092 L59.99 458.876 Q59.99 456.557 59.7001 455.172 Q59.4103 453.755 58.6051 452.821 Q57.7678 451.855 56.6406 451.34 Q55.5133 450.792 53.4844 450.245 Q52.8081 450.084 52.5504 449.923 Q52.2928 449.729 52.2928 449.311 Q52.2928 448.989 52.5182 448.763 Q52.7114 448.538 53.0013 448.538 L68.4279 452.306 Q69.2008 452.499 69.4907 452.692 Q69.7483 452.886 69.7483 453.272 Q69.7483 453.691 69.5229 453.916 Q69.2975 454.142 69.0398 454.142 Q68.7822 454.142 68.2991 453.948 Q66.2057 453.465 65.0785 453.465 Q64.4344 453.465 64.1123 453.53 Q63.7903 453.562 63.3394 453.852 Q62.8563 454.109 62.6308 454.689 Q62.4054 455.269 62.2444 456.364 Q62.0511 457.459 62.0511 459.101 L62.0511 465.607 L80.0542 470.116 Q81.2458 470.438 81.5679 470.438 Q81.9222 470.438 82.051 470.277 Q82.1476 470.084 82.212 469.568 Q82.3086 468.989 82.3086 468.119 L82.3086 458.489 Q82.3086 456.364 82.1154 454.657 Q81.9222 452.95 81.4391 451.533 Q80.956 450.084 80.4085 448.989 Q79.861 447.894 78.8626 446.863 Q77.832 445.833 76.9302 445.124 Q75.9963 444.383 74.4182 443.514 Q72.8401 442.644 71.5519 442.032 Q70.2314 441.42 68.1058 440.486 Q67.3329 440.229 67.3329 439.617 Q67.3329 439.263 67.5261 439.069 Q67.6872 438.876 67.8482 438.844 L68.0414 438.844 Q68.6533 439.037 68.9754 439.166 L83.2104 445.221 Q84.0155 445.575 84.1766 445.865 Q84.3376 446.155 84.3376 447.282 L84.3376 481.517 Q84.3376 482.29 84.3054 482.612 Q84.2732 482.901 84.1121 483.127 Q83.9189 483.352 83.5324 483.352 Q82.9205 483.352 82.6629 483.095 Q82.373 482.837 82.3408 482.547 Q82.3086 482.257 82.3086 481.517 Q82.3086 479.906 82.212 478.94 Q82.1154 477.974 81.9866 477.362 Q81.8255 476.718 81.3747 476.396 Q80.9238 476.042 80.5373 475.881 Q80.1186 475.72 79.1847 475.494 L44.3057 466.799 Q43.1141 466.476 42.7276 466.476 Q42.3089 466.476 42.0513 466.766 Q41.7936 467.024 41.697 467.732 Q41.5682 468.441 41.5682 469.021 Q41.536 469.568 41.536 470.76 Q41.536 471.533 41.5038 471.855 Q41.4716 472.145 41.3106 472.37 Q41.1495 472.596 40.7953 472.596 Q39.8935 472.596 39.7003 472.209 Q39.4748 471.79 39.4748 470.631 L39.4748 437.33 Q39.4748 436.01 39.7647 435.72 Q40.0223 435.398 41.2784 435.527 Z" fill="#000000" fill-rule="nonzero" fill-opacity="1" /><path clip-path="url(#clip250)" d="M89.8544 403.801 Q90.0348 403.801 90.7336 404.004 Q91.4325 404.207 92.5146 404.703 Q93.5967 405.176 94.5887 405.83 Q95.5581 406.484 96.2795 407.566 Q96.9784 408.625 96.9784 409.843 Q96.9784 411.466 95.8962 412.548 Q94.8141 413.63 93.1909 413.63 Q92.2892 413.63 91.0493 413.157 Q83.0461 410.158 80.2957 410.158 Q77.0719 410.158 77.0719 412.661 Q77.0719 413.901 77.5453 415.073 Q77.9962 416.223 78.6275 417.012 Q79.2587 417.801 80.1379 418.522 Q80.9946 419.221 81.5807 419.582 Q82.1443 419.92 82.7079 420.19 L85.0074 420.777 Q85.6387 420.912 88.096 421.566 L92.2666 422.58 Q95.3777 423.302 95.6708 423.459 Q96.302 423.685 96.6402 424.181 Q96.9784 424.677 96.9784 425.173 Q96.9784 425.736 96.6402 426.12 Q96.302 426.503 95.7159 426.503 Q95.6257 426.503 95.2875 426.435 Q94.9494 426.368 94.476 426.255 Q94.0025 426.142 93.732 426.097 L83.0686 423.414 Q81.1299 422.918 80.5212 422.806 Q79.8899 422.67 79.1911 422.67 Q77.0719 422.67 77.0719 424.113 Q77.0719 425.285 78.4696 426.052 Q79.8674 426.818 82.5727 427.472 Q83.3166 427.675 83.4744 427.81 Q83.6322 427.923 83.6322 428.261 Q83.6097 428.825 83.1588 428.825 Q83.0461 428.825 82.3021 428.644 Q81.5582 428.464 80.4986 428.126 Q79.4165 427.765 78.6951 427.427 Q78.154 427.134 77.906 426.976 Q77.6355 426.796 77.117 426.368 Q76.5759 425.917 76.328 425.33 Q76.0574 424.722 76.0574 423.978 Q76.0574 422.31 77.1395 421.092 Q78.1991 419.875 80.0703 419.717 Q76.0574 416.719 76.0574 412.525 Q76.0574 410.046 77.365 408.625 Q78.6725 407.205 80.9946 407.205 Q81.5356 407.205 82.2345 407.318 Q82.9108 407.408 83.7675 407.633 Q84.6242 407.836 85.278 408.017 Q85.9317 408.197 86.9913 408.558 Q88.0283 408.918 88.4792 409.076 Q88.9301 409.234 89.9897 409.617 Q91.0267 409.978 91.1394 410.023 Q93.236 410.857 94.4309 410.857 Q95.2199 410.857 95.5806 410.609 Q95.9413 410.339 95.9413 409.753 Q95.9413 408.174 94.3858 407.002 Q92.8077 405.807 90.2377 405.041 Q89.6741 404.86 89.5388 404.77 Q89.4035 404.658 89.4035 404.342 Q89.4035 403.801 89.8544 403.801 Z" fill="#000000" fill-rule="nonzero" fill-opacity="1" /><polyline clip-path="url(#clip252)" style="stroke:#000000; stroke-linecap:round; stroke-linejoin:round; stroke-width:4; stroke-opacity:1; fill:none" stroke-dasharray="16, 10" points="-1277.6,1063.81 3447.93,1063.81 "/>
<polyline clip-path="url(#clip252)" style="stroke:#000000; stroke-linecap:round; stroke-linejoin:round; stroke-width:8; stroke-opacity:1; fill:none" points="990.418,1063.81 1179.92,1063.81 "/>
<polyline clip-path="url(#clip252)" style="stroke:#009af9; stroke-linecap:round; stroke-linejoin:round; stroke-width:8; stroke-opacity:1; fill:none" points="297.578,1063.81 307.833,1063.81 402.658,1063.8 459.644,1063.8 507.824,1063.79 560.162,1063.76 608.413,1063.69 634.278,1063.62 660.143,1063.49 690.11,1063.23 720.077,1062.77 733.393,1062.47 746.708,1062.09 760.024,1061.59 773.34,1060.96 785.016,1060.28 796.693,1059.43 808.369,1058.4 820.046,1057.14 826.411,1056.35 832.777,1055.47 839.142,1054.5 845.507,1053.43 851.873,1052.25 858.238,1050.95 864.603,1049.52 870.968,1047.96 877.372,1046.25 883.775,1044.38 890.178,1042.35 896.581,1040.15 902.984,1037.77 909.387,1035.21 915.79,1032.47 922.194,1029.53 929.273,1026.07 936.353,1022.38 943.432,1018.46 950.512,1014.34 957.591,1010.02 964.671,1005.52 971.75,1000.88 978.829,996.129 992.301,986.911 1005.77,977.747 1012.51,973.303 1019.25,969.018 1025.98,964.945 1032.72,961.139 1036.22,959.282 1039.72,957.518 1043.22,955.854 1046.72,954.297 1050.23,952.852 1053.73,951.527 1057.23,950.325 1060.73,949.252 1064.23,948.314 1067.74,947.513 1071.24,946.854 1074.74,946.339 1078.24,945.97 1081.74,945.75 1085.25,945.679 1088.75,945.757 1091.7,945.938 1094.64,946.224 1097.59,946.615 1100.54,947.108 1103.49,947.703 1106.43,948.398 1109.38,949.19 1112.33,950.077 1115.28,951.056 1118.23,952.125 1121.17,953.28 1124.12,954.518 1127.07,955.836 1130.02,957.228 1132.97,958.693 1135.91,960.225 1139.51,962.18 1143.11,964.223 1146.71,966.344 1150.31,968.535 1157.51,973.097 1164.71,977.844 1179.1,987.645 1193.5,997.477 1200.09,1001.88 1206.69,1006.18 1213.28,1010.35 1219.87,1014.37 1226.47,1018.22 1233.06,1021.88 1239.65,1025.36 1246.25,1028.63 1252.34,1031.48 1258.43,1034.16 1264.52,1036.66 1270.61,1039 1276.7,1041.18 1282.79,1043.2 1288.88,1045.07 1294.97,1046.8 1301.14,1048.41 1307.31,1049.89 1313.47,1051.24 1319.64,1052.48 1325.81,1053.6 1331.98,1054.63 1338.15,1055.56 1344.32,1056.4 1351.23,1057.25 1358.15,1058.02 1365.06,1058.69 1371.97,1059.3 1385.8,1060.31 1399.63,1061.1 1412.16,1061.67 1424.69,1062.12 1437.22,1062.48 1449.75,1062.76 1478.44,1063.21 1507.13,1063.47 1533.7,1063.61 1560.26,1063.69 1612.64,1063.76 1663.5,1063.79 1715.64,1063.8 1772.76,1063.8 1855.73,1063.81 1872.76,1063.81 "/>
<polyline clip-path="url(#clip252)" style="stroke:#000000; stroke-linecap:round; stroke-linejoin:round; stroke-width:4; stroke-opacity:1; fill:none" stroke-dasharray="16, 10" points="-1277.6,668.476 3447.93,668.476 "/>
<polyline clip-path="url(#clip252)" style="stroke:#000000; stroke-linecap:round; stroke-linejoin:round; stroke-width:8; stroke-opacity:1; fill:none" points="897.313,668.476 1273.02,668.476 "/>
<polyline clip-path="url(#clip252)" style="stroke:#e26f46; stroke-linecap:round; stroke-linejoin:round; stroke-width:8; stroke-opacity:1; fill:none" points="297.578,668.462 307.833,668.46 402.658,668.406 459.644,668.31 507.824,668.131 560.162,667.718 608.413,666.918 634.278,666.192 660.143,665.14 675.126,664.33 690.11,663.332 705.094,662.107 720.077,660.609 733.393,659.006 746.708,657.106 760.024,654.862 773.34,652.229 785.016,649.561 796.693,646.524 808.369,643.09 820.046,639.235 826.411,636.951 832.777,634.535 839.142,631.989 845.507,629.314 851.873,626.513 858.238,623.593 864.603,620.559 870.968,617.424 896.581,604.088 922.194,590.783 929.273,587.405 936.353,584.269 943.432,581.443 950.512,578.999 954.051,577.943 957.591,577.01 961.131,576.211 964.671,575.554 968.21,575.048 971.75,574.703 975.29,574.528 978.829,574.531 982.197,574.706 985.565,575.057 988.933,575.59 992.301,576.31 995.669,577.222 999.037,578.331 1002.41,579.641 1005.77,581.154 1009.14,582.874 1012.51,584.802 1015.88,586.937 1019.25,589.281 1022.61,591.83 1025.98,594.584 1029.35,597.539 1032.72,600.691 1036.22,604.171 1039.72,607.85 1043.22,611.72 1046.72,615.772 1050.23,619.994 1053.73,624.376 1057.23,628.905 1060.73,633.565 1067.74,643.226 1074.74,653.232 1081.74,663.449 1088.75,673.735 1094.64,682.344 1100.54,690.816 1106.43,699.071 1112.33,707.031 1118.23,714.624 1124.12,721.786 1127.07,725.186 1130.02,728.459 1132.97,731.596 1135.91,734.595 1139.51,738.06 1143.11,741.302 1146.71,744.318 1150.31,747.101 1153.91,749.648 1157.51,751.959 1161.11,754.032 1164.71,755.868 1168.3,757.468 1171.9,758.836 1175.5,759.976 1179.1,760.892 1182.7,761.59 1186.3,762.077 1189.9,762.359 1193.5,762.446 1196.79,762.36 1200.09,762.123 1203.39,761.742 1206.69,761.224 1213.28,759.809 1219.87,757.938 1226.47,755.672 1233.06,753.07 1239.65,750.192 1246.25,747.093 1270.61,734.538 1294.97,721.748 1307.31,715.633 1319.64,709.91 1325.81,707.216 1331.98,704.641 1338.15,702.187 1344.32,699.856 1351.23,697.389 1358.15,695.076 1365.06,692.912 1371.97,690.894 1378.89,689.017 1385.8,687.275 1392.71,685.661 1399.63,684.17 1412.16,681.757 1424.69,679.683 1437.22,677.91 1449.75,676.4 1464.09,674.95 1478.44,673.754 1492.78,672.771 1507.13,671.965 1533.7,670.841 1560.26,670.074 1612.64,669.207 1663.5,668.816 1715.64,668.631 1772.76,668.541 1855.73,668.495 1872.76,668.491 "/>
<polyline clip-path="url(#clip252)" style="stroke:#000000; stroke-linecap:round; stroke-linejoin:round; stroke-width:4; stroke-opacity:1; fill:none" stroke-dasharray="16, 10" points="-1277.6,386.098 3447.93,386.098 "/>
<polyline clip-path="url(#clip252)" style="stroke:#000000; stroke-linecap:round; stroke-linejoin:round; stroke-width:8; stroke-opacity:1; fill:none" points="800.919,386.098 1369.41,386.098 "/>
<polyline clip-path="url(#clip252)" style="stroke:#3da44d; stroke-linecap:round; stroke-linejoin:round; stroke-width:8; stroke-opacity:1; fill:none" points="297.578,385.591 302.706,385.564 307.833,385.535 355.246,385.188 402.658,384.629 431.151,384.141 459.644,383.491 483.734,382.78 507.824,381.877 533.993,380.623 560.162,379.01 572.225,378.119 584.288,377.122 596.35,376.006 608.413,374.76 621.345,373.264 634.278,371.585 647.21,369.706 660.143,367.609 675.126,364.883 690.11,361.813 697.602,360.143 705.094,358.378 712.585,356.518 720.077,354.561 733.393,350.843 746.708,346.824 760.024,342.521 773.34,337.968 796.693,329.559 820.046,321.055 832.777,316.656 845.507,312.64 851.873,310.84 858.238,309.218 864.603,307.805 870.968,306.634 877.372,305.734 883.775,305.15 886.976,304.988 890.178,304.918 893.379,304.946 896.581,305.075 899.783,305.31 902.984,305.655 906.186,306.115 909.387,306.693 912.589,307.395 915.79,308.222 918.992,309.179 922.194,310.269 925.733,311.633 929.273,313.166 932.813,314.87 936.353,316.749 939.892,318.804 943.432,321.035 946.972,323.443 950.512,326.026 954.051,328.783 957.591,331.71 961.131,334.804 964.671,338.06 968.21,341.472 971.75,345.033 975.29,348.734 978.829,352.566 985.565,360.183 992.301,368.151 999.037,376.373 1005.77,384.738 1012.51,393.123 1019.25,401.396 1025.98,409.42 1032.72,417.053 1036.22,420.821 1039.72,424.427 1043.22,427.85 1046.72,431.074 1050.23,434.082 1053.73,436.855 1057.23,439.38 1060.73,441.642 1064.23,443.629 1067.74,445.328 1071.24,446.731 1074.74,447.829 1078.24,448.616 1081.74,449.087 1085.25,449.24 1088.75,449.073 1091.7,448.685 1094.64,448.074 1097.59,447.241 1100.54,446.19 1103.49,444.925 1106.43,443.451 1109.38,441.775 1112.33,439.902 1115.28,437.842 1118.23,435.601 1121.17,433.189 1124.12,430.615 1127.07,427.889 1130.02,425.022 1132.97,422.023 1135.91,418.905 1139.51,414.952 1143.11,410.86 1146.71,406.648 1150.31,402.339 1157.51,393.516 1164.71,384.557 1171.9,375.624 1179.1,366.866 1182.7,362.596 1186.3,358.417 1189.9,354.345 1193.5,350.393 1196.79,346.886 1200.09,343.498 1203.39,340.235 1206.69,337.104 1209.98,334.109 1213.28,331.255 1216.58,328.547 1219.87,325.988 1223.17,323.579 1226.47,321.322 1229.76,319.218 1233.06,317.267 1236.36,315.469 1239.65,313.822 1242.95,312.326 1246.25,310.977 1249.29,309.861 1252.34,308.867 1255.38,307.993 1258.43,307.235 1261.47,306.59 1264.52,306.056 1267.56,305.628 1270.61,305.304 1273.65,305.08 1276.7,304.952 1279.74,304.916 1282.79,304.969 1288.88,305.323 1294.97,305.984 1301.14,306.934 1307.31,308.133 1313.47,309.553 1319.64,311.162 1325.81,312.932 1331.98,314.838 1338.15,316.854 1344.32,318.957 1371.97,328.947 1399.63,338.887 1412.16,343.134 1424.69,347.155 1437.22,350.924 1449.75,354.425 1464.09,358.099 1478.44,361.423 1492.78,364.41 1507.13,367.078 1520.41,369.285 1533.7,371.257 1546.98,373.015 1560.26,374.578 1573.36,375.945 1586.45,377.157 1599.55,378.231 1612.64,379.18 1638.07,380.716 1663.5,381.918 1689.57,382.877 1715.64,383.618 1744.2,384.237 1772.76,384.703 1814.24,385.181 1855.73,385.495 1864.24,385.545 1872.76,385.591 "/>
<polyline clip-path="url(#clip252)" style="stroke:#000000; stroke-linecap:round; stroke-linejoin:round; stroke-width:4; stroke-opacity:1; fill:none" stroke-dasharray="16, 10" points="-1277.6,216.671 3447.93,216.671 "/>
<polyline clip-path="url(#clip252)" style="stroke:#000000; stroke-linecap:round; stroke-linejoin:round; stroke-width:8; stroke-opacity:1; fill:none" points="656.271,216.671 1514.06,216.671 "/>
<polyline clip-path="url(#clip252)" style="stroke:#c271d2; stroke-linecap:round; stroke-linejoin:round; stroke-width:8; stroke-opacity:1; fill:none" points="297.578,207.45 300.142,207.33 302.706,207.209 305.269,207.086 307.833,206.961 331.539,205.73 355.246,204.346 378.952,202.791 402.658,201.048 416.904,199.901 431.151,198.675 445.397,197.364 459.644,195.964 483.734,193.382 507.824,190.513 520.909,188.829 533.993,187.054 547.078,185.186 560.162,183.226 584.288,179.376 608.413,175.242 634.278,170.553 660.143,165.715 675.126,162.915 690.11,160.18 705.094,157.576 720.077,155.184 726.735,154.215 733.393,153.316 740.051,152.499 746.708,151.775 753.366,151.155 760.024,150.653 766.682,150.283 773.34,150.058 779.178,149.992 785.016,150.059 790.854,150.27 796.693,150.636 802.531,151.168 808.369,151.875 814.208,152.769 820.046,153.861 826.411,155.287 832.777,156.971 839.142,158.924 845.507,161.155 851.873,163.672 858.238,166.48 864.603,169.581 870.968,172.975 877.372,176.681 883.775,180.669 890.178,184.928 896.581,189.439 902.984,194.179 909.387,199.118 915.79,204.22 922.194,209.444 936.353,221.182 950.512,232.657 954.051,235.401 957.591,238.071 961.131,240.655 964.671,243.14 968.21,245.513 971.75,247.762 975.29,249.874 978.829,251.837 982.197,253.557 985.565,255.121 988.933,256.52 992.301,257.745 995.669,258.789 999.037,259.644 1002.41,260.302 1005.77,260.758 1009.14,261.006 1012.51,261.044 1015.88,260.867 1019.25,260.474 1022.61,259.865 1025.98,259.039 1029.35,257.999 1032.72,256.748 1036.22,255.228 1039.72,253.491 1043.22,251.544 1046.72,249.398 1050.23,247.063 1053.73,244.552 1057.23,241.877 1060.73,239.054 1067.74,233.028 1074.74,226.613 1081.74,219.961 1088.75,213.23 1094.64,207.621 1100.54,202.165 1106.43,196.955 1112.33,192.076 1115.28,189.785 1118.23,187.607 1121.17,185.548 1124.12,183.617 1127.07,181.822 1130.02,180.167 1132.97,178.66 1135.91,177.306 1139.51,175.864 1143.11,174.661 1146.71,173.702 1150.31,172.99 1153.91,172.524 1157.51,172.306 1161.11,172.332 1164.71,172.6 1168.3,173.104 1171.9,173.838 1175.5,174.795 1179.1,175.967 1182.7,177.343 1186.3,178.913 1189.9,180.666 1193.5,182.591 1196.79,184.495 1200.09,186.522 1203.39,188.664 1206.69,190.909 1209.98,193.248 1213.28,195.67 1216.58,198.166 1219.87,200.725 1233.06,211.399 1246.25,222.338 1252.34,227.335 1258.43,232.235 1264.52,237.002 1270.61,241.602 1276.7,246.008 1282.79,250.196 1288.88,254.149 1294.97,257.853 1301.14,261.341 1307.31,264.556 1313.47,267.495 1319.64,270.159 1325.81,272.551 1331.98,274.675 1338.15,276.539 1344.32,278.152 1351.23,279.672 1358.15,280.904 1365.06,281.865 1371.97,282.571 1378.89,283.042 1385.8,283.294 1392.71,283.345 1399.63,283.214 1405.89,282.95 1412.16,282.562 1418.42,282.061 1424.69,281.459 1430.95,280.765 1437.22,279.99 1443.48,279.144 1449.75,278.234 1464.09,275.958 1478.44,273.48 1492.78,270.875 1507.13,268.202 1533.7,263.227 1560.26,258.394 1586.45,253.899 1612.64,249.739 1625.36,247.85 1638.07,246.048 1650.79,244.334 1663.5,242.705 1676.53,241.123 1689.57,239.627 1702.6,238.215 1715.64,236.882 1729.92,235.51 1744.2,234.226 1758.48,233.026 1772.76,231.904 1793.5,230.405 1814.24,229.049 1834.99,227.824 1855.73,226.718 1859.99,226.505 1864.24,226.296 1868.5,226.092 1872.76,225.892 "/>
<polyline clip-path="url(#clip252)" style="stroke:#000000; stroke-linecap:round; stroke-linejoin:round; stroke-width:8; stroke-opacity:1; fill:none" points="297.578,161.71 307.833,161.876 402.658,164.594 459.644,168.03 507.824,172.948 533.993,176.803 560.162,181.811 584.288,187.74 608.413,195.269 634.278,205.594 660.143,218.877 675.126,228.229 690.11,239.016 705.094,251.439 720.077,265.722 733.393,280.173 746.708,296.469 760.024,314.808 773.34,335.395 785.016,355.465 796.693,377.569 808.369,401.847 820.046,428.433 826.411,443.942 832.777,460.189 839.142,477.191 845.507,494.96 851.873,513.506 858.238,532.835 864.603,552.951 870.968,573.852 877.372,595.664 883.775,618.251 890.178,641.597 896.581,665.677 902.984,690.459 909.387,715.904 915.79,741.964 922.194,768.583 950.512,891.121 978.829,1015.14 985.565,1043.68 992.301,1071.5 999.037,1098.43 1005.77,1124.28 1012.51,1148.86 1019.25,1171.99 1025.98,1193.5 1032.72,1213.2 1039.72,1231.61 1046.72,1247.72 1053.73,1261.4 1060.73,1272.49 1067.74,1280.9 1074.74,1286.55 1081.74,1289.37 1088.75,1289.34 1094.64,1287.1 1100.54,1282.85 1106.43,1276.63 1112.33,1268.48 1118.23,1258.46 1124.12,1246.62 1130.02,1233.07 1135.91,1217.88 1143.11,1197.27 1150.31,1174.57 1157.51,1149.98 1164.71,1123.73 1171.9,1096.05 1179.1,1067.14 1186.3,1037.25 1193.5,1006.58 1219.87,890.897 1246.25,776.545 1258.43,726.082 1270.61,677.762 1282.79,631.91 1294.97,588.747 1301.14,567.957 1307.31,547.9 1313.47,528.582 1319.64,510.002 1325.81,492.157 1331.98,475.041 1338.15,458.644 1344.32,442.954 1351.23,426.193 1358.15,410.28 1365.06,395.191 1371.97,380.899 1385.8,354.595 1399.63,331.134 1412.16,312.133 1424.69,295.097 1437.22,279.855 1449.75,266.244 1464.09,252.465 1478.44,240.406 1492.78,229.871 1507.13,220.68 1520.41,213.227 1533.7,206.673 1546.98,200.914 1560.26,195.856 1586.45,187.628 1612.64,181.281 1638.07,176.516 1663.5,172.821 1715.64,167.648 1772.76,164.373 1855.73,161.996 1872.76,161.71 "/>
<path clip-path="url(#clip250)" d="M350.084 1357.48 L623.425 1357.48 L623.425 1098.28 L350.084 1098.28  Z" fill="#ffffff" fill-rule="evenodd" fill-opacity="1"/>
<polyline clip-path="url(#clip250)" style="stroke:#000000; stroke-linecap:round; stroke-linejoin:round; stroke-width:4; stroke-opacity:1; fill:none" points="350.084,1357.48 623.425,1357.48 623.425,1098.28 350.084,1098.28 350.084,1357.48 "/>
<polyline clip-path="url(#clip250)" style="stroke:#009af9; stroke-linecap:round; stroke-linejoin:round; stroke-width:8; stroke-opacity:1; fill:none" points="367.586,1150.12 472.598,1150.12 "/>
<path clip-path="url(#clip250)" d="M516.099 1158.56 Q516.099 1158.74 515.888 1159.47 Q515.677 1160.2 515.162 1161.32 Q514.67 1162.44 513.991 1163.48 Q513.311 1164.48 512.187 1165.23 Q511.086 1165.96 509.821 1165.96 Q508.135 1165.96 507.011 1164.83 Q505.886 1163.71 505.886 1162.02 Q505.886 1161.09 506.378 1159.8 Q509.494 1151.48 509.494 1148.63 Q509.494 1145.28 506.894 1145.28 Q505.605 1145.28 504.387 1145.77 Q503.193 1146.24 502.373 1146.89 Q501.553 1147.55 500.804 1148.46 Q500.078 1149.35 499.703 1149.96 Q499.352 1150.55 499.071 1151.13 L498.462 1153.52 Q498.321 1154.18 497.642 1156.73 L496.588 1161.06 Q495.838 1164.3 495.674 1164.6 Q495.44 1165.26 494.925 1165.61 Q494.409 1165.96 493.894 1165.96 Q493.309 1165.96 492.91 1165.61 Q492.512 1165.26 492.512 1164.65 Q492.512 1164.55 492.583 1164.2 Q492.653 1163.85 492.77 1163.36 Q492.887 1162.87 492.934 1162.59 L495.721 1151.51 Q496.236 1149.49 496.354 1148.86 Q496.494 1148.2 496.494 1147.48 Q496.494 1145.28 494.995 1145.28 Q493.777 1145.28 492.981 1146.73 Q492.184 1148.18 491.505 1150.99 Q491.294 1151.76 491.154 1151.93 Q491.037 1152.09 490.685 1152.09 Q490.1 1152.07 490.1 1151.6 Q490.1 1151.48 490.287 1150.71 Q490.474 1149.94 490.826 1148.84 Q491.201 1147.71 491.552 1146.96 Q491.856 1146.4 492.02 1146.14 Q492.208 1145.86 492.653 1145.32 Q493.121 1144.76 493.73 1144.5 Q494.363 1144.22 495.136 1144.22 Q496.869 1144.22 498.134 1145.35 Q499.398 1146.45 499.562 1148.39 Q502.678 1144.22 507.034 1144.22 Q509.611 1144.22 511.086 1145.58 Q512.562 1146.94 512.562 1149.35 Q512.562 1149.91 512.445 1150.64 Q512.351 1151.34 512.117 1152.23 Q511.906 1153.12 511.719 1153.8 Q511.531 1154.48 511.157 1155.58 Q510.782 1156.66 510.618 1157.13 Q510.454 1157.6 510.056 1158.7 Q509.681 1159.77 509.634 1159.89 Q508.767 1162.07 508.767 1163.31 Q508.767 1164.13 509.025 1164.51 Q509.306 1164.88 509.915 1164.88 Q511.555 1164.88 512.773 1163.26 Q514.014 1161.62 514.81 1158.95 Q514.998 1158.37 515.091 1158.23 Q515.209 1158.09 515.537 1158.09 Q516.099 1158.09 516.099 1158.56 Z" fill="#000000" fill-rule="nonzero" fill-opacity="1" /><path clip-path="url(#clip250)" d="M531.899 1158.13 Q531.946 1157.55 532.86 1157.55 L562.255 1157.55 Q563.637 1157.55 563.66 1158.09 Q563.66 1158.67 562.348 1158.65 L533.187 1158.65 Q531.899 1158.67 531.899 1158.13 M531.899 1148.77 Q531.899 1148.18 532.906 1148.2 L562.208 1148.2 Q563.637 1148.2 563.66 1148.77 Q563.66 1149.3 562.442 1149.3 L532.86 1149.3 Q531.899 1149.3 531.899 1148.77 Z" fill="#000000" fill-rule="nonzero" fill-opacity="1" /><path clip-path="url(#clip250)" d="M582.166 1150.08 Q582.166 1143.03 583.947 1139.19 Q586.429 1133.47 592.285 1133.47 Q593.526 1133.47 594.815 1133.82 Q596.126 1134.15 597.766 1135.44 Q599.429 1136.73 600.436 1138.83 Q602.357 1142.91 602.357 1150.08 Q602.357 1157.08 600.577 1160.9 Q597.977 1166.47 592.238 1166.47 Q590.083 1166.47 587.882 1165.37 Q585.703 1164.27 584.321 1161.62 Q582.166 1157.67 582.166 1150.08 M586.148 1149.49 Q586.148 1156.73 586.664 1159.61 Q587.249 1162.73 588.842 1164.08 Q590.458 1165.42 592.238 1165.42 Q594.159 1165.42 595.751 1163.99 Q597.368 1162.54 597.86 1159.42 Q598.398 1156.35 598.375 1149.49 Q598.375 1142.82 597.906 1140.15 Q597.274 1137.03 595.588 1135.79 Q593.925 1134.53 592.238 1134.53 Q591.606 1134.53 590.926 1134.71 Q590.271 1134.9 589.31 1135.44 Q588.35 1135.98 587.6 1137.31 Q586.874 1138.65 586.523 1140.66 Q586.148 1143.26 586.148 1149.49 Z" fill="#000000" fill-rule="nonzero" fill-opacity="1" /><polyline clip-path="url(#clip250)" style="stroke:#e26f46; stroke-linecap:round; stroke-linejoin:round; stroke-width:8; stroke-opacity:1; fill:none" points="367.586,1201.96 472.598,1201.96 "/>
<path clip-path="url(#clip250)" d="M516.099 1210.65 Q516.099 1210.84 515.888 1211.57 Q515.677 1212.29 515.162 1213.42 Q514.67 1214.54 513.991 1215.57 Q513.311 1216.58 512.187 1217.33 Q511.086 1218.05 509.821 1218.05 Q508.135 1218.05 507.011 1216.93 Q505.886 1215.81 505.886 1214.12 Q505.886 1213.18 506.378 1211.89 Q509.494 1203.58 509.494 1200.72 Q509.494 1197.37 506.894 1197.37 Q505.605 1197.37 504.387 1197.86 Q503.193 1198.33 502.373 1198.99 Q501.553 1199.64 500.804 1200.56 Q500.078 1201.45 499.703 1202.06 Q499.352 1202.64 499.071 1203.23 L498.462 1205.62 Q498.321 1206.27 497.642 1208.83 L496.588 1213.16 Q495.838 1216.39 495.674 1216.7 Q495.44 1217.35 494.925 1217.7 Q494.409 1218.05 493.894 1218.05 Q493.309 1218.05 492.91 1217.7 Q492.512 1217.35 492.512 1216.74 Q492.512 1216.65 492.583 1216.3 Q492.653 1215.95 492.77 1215.45 Q492.887 1214.96 492.934 1214.68 L495.721 1203.6 Q496.236 1201.59 496.354 1200.96 Q496.494 1200.3 496.494 1199.57 Q496.494 1197.37 494.995 1197.37 Q493.777 1197.37 492.981 1198.82 Q492.184 1200.28 491.505 1203.09 Q491.294 1203.86 491.154 1204.02 Q491.037 1204.19 490.685 1204.19 Q490.1 1204.16 490.1 1203.7 Q490.1 1203.58 490.287 1202.81 Q490.474 1202.03 490.826 1200.93 Q491.201 1199.81 491.552 1199.06 Q491.856 1198.5 492.02 1198.24 Q492.208 1197.96 492.653 1197.42 Q493.121 1196.86 493.73 1196.6 Q494.363 1196.32 495.136 1196.32 Q496.869 1196.32 498.134 1197.44 Q499.398 1198.54 499.562 1200.49 Q502.678 1196.32 507.034 1196.32 Q509.611 1196.32 511.086 1197.68 Q512.562 1199.04 512.562 1201.45 Q512.562 1202.01 512.445 1202.74 Q512.351 1203.44 512.117 1204.33 Q511.906 1205.22 511.719 1205.9 Q511.531 1206.58 511.157 1207.68 Q510.782 1208.76 510.618 1209.22 Q510.454 1209.69 510.056 1210.79 Q509.681 1211.87 509.634 1211.99 Q508.767 1214.17 508.767 1215.41 Q508.767 1216.23 509.025 1216.6 Q509.306 1216.98 509.915 1216.98 Q511.555 1216.98 512.773 1215.36 Q514.014 1213.72 514.81 1211.05 Q514.998 1210.47 515.091 1210.32 Q515.209 1210.18 515.537 1210.18 Q516.099 1210.18 516.099 1210.65 Z" fill="#000000" fill-rule="nonzero" fill-opacity="1" /><path clip-path="url(#clip250)" d="M531.899 1210.23 Q531.946 1209.65 532.86 1209.65 L562.255 1209.65 Q563.637 1209.65 563.66 1210.18 Q563.66 1210.77 562.348 1210.75 L533.187 1210.75 Q531.899 1210.77 531.899 1210.23 M531.899 1200.86 Q531.899 1200.28 532.906 1200.3 L562.208 1200.3 Q563.637 1200.3 563.66 1200.86 Q563.66 1201.4 562.442 1201.4 L532.86 1201.4 Q531.899 1201.4 531.899 1200.86 Z" fill="#000000" fill-rule="nonzero" fill-opacity="1" /><path clip-path="url(#clip250)" d="M582.166 1190.13 L582.166 1188.64 Q587.928 1188.64 590.903 1185.57 Q591.723 1185.57 591.863 1185.75 Q592.004 1185.94 592.004 1186.81 L592.004 1213.72 Q592.004 1215.15 592.707 1215.59 Q593.409 1216.04 596.478 1216.04 L598 1216.04 L598 1217.52 Q596.314 1217.38 590.224 1217.38 Q584.134 1217.38 582.471 1217.52 L582.471 1216.04 L583.993 1216.04 Q587.015 1216.04 587.741 1215.62 Q588.467 1215.17 588.467 1213.72 L588.467 1188.87 Q585.961 1190.13 582.166 1190.13 Z" fill="#000000" fill-rule="nonzero" fill-opacity="1" /><polyline clip-path="url(#clip250)" style="stroke:#3da44d; stroke-linecap:round; stroke-linejoin:round; stroke-width:8; stroke-opacity:1; fill:none" points="367.586,1253.8 472.598,1253.8 "/>
<path clip-path="url(#clip250)" d="M516.099 1262.49 Q516.099 1262.68 515.888 1263.41 Q515.677 1264.13 515.162 1265.26 Q514.67 1266.38 513.991 1267.41 Q513.311 1268.42 512.187 1269.17 Q511.086 1269.89 509.821 1269.89 Q508.135 1269.89 507.011 1268.77 Q505.886 1267.65 505.886 1265.96 Q505.886 1265.02 506.378 1263.73 Q509.494 1255.42 509.494 1252.56 Q509.494 1249.21 506.894 1249.21 Q505.605 1249.21 504.387 1249.7 Q503.193 1250.17 502.373 1250.83 Q501.553 1251.48 500.804 1252.4 Q500.078 1253.29 499.703 1253.9 Q499.352 1254.48 499.071 1255.07 L498.462 1257.46 Q498.321 1258.11 497.642 1260.67 L496.588 1265 Q495.838 1268.23 495.674 1268.54 Q495.44 1269.19 494.925 1269.54 Q494.409 1269.89 493.894 1269.89 Q493.309 1269.89 492.91 1269.54 Q492.512 1269.19 492.512 1268.58 Q492.512 1268.49 492.583 1268.14 Q492.653 1267.79 492.77 1267.29 Q492.887 1266.8 492.934 1266.52 L495.721 1255.44 Q496.236 1253.43 496.354 1252.8 Q496.494 1252.14 496.494 1251.41 Q496.494 1249.21 494.995 1249.21 Q493.777 1249.21 492.981 1250.66 Q492.184 1252.12 491.505 1254.93 Q491.294 1255.7 491.154 1255.86 Q491.037 1256.03 490.685 1256.03 Q490.1 1256 490.1 1255.54 Q490.1 1255.42 490.287 1254.65 Q490.474 1253.87 490.826 1252.77 Q491.201 1251.65 491.552 1250.9 Q491.856 1250.34 492.02 1250.08 Q492.208 1249.8 492.653 1249.26 Q493.121 1248.7 493.73 1248.44 Q494.363 1248.16 495.136 1248.16 Q496.869 1248.16 498.134 1249.28 Q499.398 1250.38 499.562 1252.33 Q502.678 1248.16 507.034 1248.16 Q509.611 1248.16 511.086 1249.52 Q512.562 1250.88 512.562 1253.29 Q512.562 1253.85 512.445 1254.58 Q512.351 1255.28 512.117 1256.17 Q511.906 1257.06 511.719 1257.74 Q511.531 1258.42 511.157 1259.52 Q510.782 1260.6 510.618 1261.06 Q510.454 1261.53 510.056 1262.63 Q509.681 1263.71 509.634 1263.83 Q508.767 1266.01 508.767 1267.25 Q508.767 1268.07 509.025 1268.44 Q509.306 1268.82 509.915 1268.82 Q511.555 1268.82 512.773 1267.2 Q514.014 1265.56 514.81 1262.89 Q514.998 1262.31 515.091 1262.16 Q515.209 1262.02 515.537 1262.02 Q516.099 1262.02 516.099 1262.49 Z" fill="#000000" fill-rule="nonzero" fill-opacity="1" /><path clip-path="url(#clip250)" d="M531.899 1262.07 Q531.946 1261.49 532.86 1261.49 L562.255 1261.49 Q563.637 1261.49 563.66 1262.02 Q563.66 1262.61 562.348 1262.59 L533.187 1262.59 Q531.899 1262.61 531.899 1262.07 M531.899 1252.7 Q531.899 1252.12 532.906 1252.14 L562.208 1252.14 Q563.637 1252.14 563.66 1252.7 Q563.66 1253.24 562.442 1253.24 L532.86 1253.24 Q531.899 1253.24 531.899 1252.7 Z" fill="#000000" fill-rule="nonzero" fill-opacity="1" /><path clip-path="url(#clip250)" d="M582.166 1269.36 Q582.166 1268.49 582.237 1268.23 Q582.33 1267.97 582.705 1267.58 L591.91 1257.32 Q596.946 1251.65 596.946 1246.71 Q596.946 1243.5 595.26 1241.2 Q593.597 1238.91 590.528 1238.91 Q588.42 1238.91 586.64 1240.19 Q584.86 1241.48 584.04 1243.78 Q584.181 1243.73 584.673 1243.73 Q585.867 1243.73 586.523 1244.48 Q587.202 1245.23 587.202 1246.24 Q587.202 1247.53 586.359 1248.16 Q585.539 1248.77 584.72 1248.77 Q584.392 1248.77 583.947 1248.7 Q583.525 1248.63 582.846 1247.97 Q582.166 1247.29 582.166 1246.1 Q582.166 1242.75 584.696 1240.08 Q587.249 1237.41 591.137 1237.41 Q595.541 1237.41 598.422 1240.03 Q601.326 1242.63 601.326 1246.71 Q601.326 1248.13 600.881 1249.45 Q600.459 1250.73 599.874 1251.74 Q599.312 1252.75 597.766 1254.37 Q596.22 1255.98 594.979 1257.13 Q593.737 1258.28 590.95 1260.71 L585.867 1265.65 L594.51 1265.65 Q598.726 1265.65 599.054 1265.28 Q599.522 1264.6 600.108 1261.02 L601.326 1261.02 L599.968 1269.36 L582.166 1269.36 Z" fill="#000000" fill-rule="nonzero" fill-opacity="1" /><polyline clip-path="url(#clip250)" style="stroke:#c271d2; stroke-linecap:round; stroke-linejoin:round; stroke-width:8; stroke-opacity:1; fill:none" points="367.586,1305.64 472.598,1305.64 "/>
<path clip-path="url(#clip250)" d="M516.099 1314.08 Q516.099 1314.26 515.888 1314.99 Q515.677 1315.72 515.162 1316.84 Q514.67 1317.96 513.991 1319 Q513.311 1320 512.187 1320.75 Q511.086 1321.48 509.821 1321.48 Q508.135 1321.48 507.011 1320.35 Q505.886 1319.23 505.886 1317.54 Q505.886 1316.61 506.378 1315.32 Q509.494 1307 509.494 1304.15 Q509.494 1300.8 506.894 1300.8 Q505.605 1300.8 504.387 1301.29 Q503.193 1301.76 502.373 1302.41 Q501.553 1303.07 500.804 1303.98 Q500.078 1304.87 499.703 1305.48 Q499.352 1306.07 499.071 1306.65 L498.462 1309.04 Q498.321 1309.7 497.642 1312.25 L496.588 1316.58 Q495.838 1319.82 495.674 1320.12 Q495.44 1320.78 494.925 1321.13 Q494.409 1321.48 493.894 1321.48 Q493.309 1321.48 492.91 1321.13 Q492.512 1320.78 492.512 1320.17 Q492.512 1320.07 492.583 1319.72 Q492.653 1319.37 492.77 1318.88 Q492.887 1318.39 492.934 1318.11 L495.721 1307.03 Q496.236 1305.01 496.354 1304.38 Q496.494 1303.72 496.494 1303 Q496.494 1300.8 494.995 1300.8 Q493.777 1300.8 492.981 1302.25 Q492.184 1303.7 491.505 1306.51 Q491.294 1307.28 491.154 1307.45 Q491.037 1307.61 490.685 1307.61 Q490.1 1307.59 490.1 1307.12 Q490.1 1307 490.287 1306.23 Q490.474 1305.46 490.826 1304.36 Q491.201 1303.23 491.552 1302.48 Q491.856 1301.92 492.02 1301.66 Q492.208 1301.38 492.653 1300.84 Q493.121 1300.28 493.73 1300.02 Q494.363 1299.74 495.136 1299.74 Q496.869 1299.74 498.134 1300.87 Q499.398 1301.97 499.562 1303.91 Q502.678 1299.74 507.034 1299.74 Q509.611 1299.74 511.086 1301.1 Q512.562 1302.46 512.562 1304.87 Q512.562 1305.43 512.445 1306.16 Q512.351 1306.86 512.117 1307.75 Q511.906 1308.64 511.719 1309.32 Q511.531 1310 511.157 1311.1 Q510.782 1312.18 510.618 1312.65 Q510.454 1313.12 510.056 1314.22 Q509.681 1315.29 509.634 1315.41 Q508.767 1317.59 508.767 1318.83 Q508.767 1319.65 509.025 1320.03 Q509.306 1320.4 509.915 1320.4 Q511.555 1320.4 512.773 1318.78 Q514.014 1317.14 514.81 1314.47 Q514.998 1313.89 515.091 1313.75 Q515.209 1313.61 515.537 1313.61 Q516.099 1313.61 516.099 1314.08 Z" fill="#000000" fill-rule="nonzero" fill-opacity="1" /><path clip-path="url(#clip250)" d="M531.899 1313.65 Q531.946 1313.07 532.86 1313.07 L562.255 1313.07 Q563.637 1313.07 563.66 1313.61 Q563.66 1314.19 562.348 1314.17 L533.187 1314.17 Q531.899 1314.19 531.899 1313.65 M531.899 1304.29 Q531.899 1303.7 532.906 1303.72 L562.208 1303.72 Q563.637 1303.72 563.66 1304.29 Q563.66 1304.82 562.442 1304.82 L532.86 1304.82 Q531.899 1304.82 531.899 1304.29 Z" fill="#000000" fill-rule="nonzero" fill-opacity="1" /><path clip-path="url(#clip250)" d="M582.166 1314.47 Q582.166 1313.05 582.986 1312.37 Q583.806 1311.69 584.86 1311.69 Q585.961 1311.69 586.734 1312.41 Q587.53 1313.12 587.53 1314.36 Q587.53 1315.69 586.593 1316.44 Q585.68 1317.19 584.368 1317 Q585.516 1318.92 587.624 1319.79 Q589.755 1320.66 591.723 1320.66 Q593.784 1320.66 595.447 1318.88 Q597.133 1317.1 597.133 1312.74 Q597.133 1309.04 595.681 1306.91 Q594.252 1304.78 591.418 1304.78 L589.31 1304.78 Q588.584 1304.78 588.373 1304.71 Q588.163 1304.64 588.163 1304.24 Q588.163 1303.77 588.889 1303.68 Q589.615 1303.68 590.763 1303.54 Q593.55 1303.44 595.025 1301.03 Q596.36 1298.78 596.36 1295.57 Q596.36 1292.65 594.955 1291.43 Q593.573 1290.19 591.77 1290.19 Q590.083 1290.19 588.233 1290.89 Q586.383 1291.59 585.375 1293.16 Q588.35 1293.16 588.35 1295.57 Q588.35 1296.63 587.671 1297.33 Q587.015 1298.01 585.914 1298.01 Q584.86 1298.01 584.157 1297.35 Q583.455 1296.67 583.455 1295.53 Q583.455 1292.79 585.891 1290.89 Q588.35 1288.99 591.957 1288.99 Q595.517 1288.99 598.141 1290.86 Q600.787 1292.74 600.787 1295.62 Q600.787 1298.45 598.914 1300.77 Q597.04 1303.09 594.065 1304.05 Q597.719 1304.78 599.897 1307.26 Q602.076 1309.72 602.076 1312.74 Q602.076 1316.49 599.124 1319.25 Q596.173 1321.99 591.863 1321.99 Q587.882 1321.99 585.024 1319.84 Q582.166 1317.68 582.166 1314.47 Z" fill="#000000" fill-rule="nonzero" fill-opacity="1" /></svg>
